G04 EAGLE Gerber RS-274X export*
G75*
%MOMM*%
%FSLAX34Y34*%
%LPD*%
%INTop Copper*%
%IPPOS*%
%AMOC8*
5,1,8,0,0,1.08239X$1,22.5*%
G01*
%ADD10R,1.500000X2.000000*%
%ADD11C,1.320800*%
%ADD12C,1.524000*%
%ADD13P,1.429621X8X22.500000*%
%ADD14P,1.429621X8X202.500000*%
%ADD15R,1.300000X1.600000*%
%ADD16C,0.203200*%

G36*
X423818Y10155D02*
X423818Y10155D01*
X426408Y10325D01*
X426409Y10325D01*
X431412Y11666D01*
X431413Y11666D01*
X435898Y14256D01*
X435898Y14257D01*
X435899Y14256D01*
X439562Y17919D01*
X439562Y17920D01*
X442152Y22405D01*
X442152Y22406D01*
X443493Y27409D01*
X443493Y27410D01*
X443493Y27416D01*
X443496Y27451D01*
X443497Y27476D01*
X443500Y27510D01*
X443502Y27545D01*
X443504Y27570D01*
X443506Y27605D01*
X443508Y27640D01*
X443510Y27664D01*
X443512Y27699D01*
X443514Y27734D01*
X443516Y27759D01*
X443518Y27794D01*
X443520Y27828D01*
X443521Y27828D01*
X443520Y27828D01*
X443522Y27853D01*
X443524Y27888D01*
X443527Y27923D01*
X443528Y27948D01*
X443531Y27982D01*
X443532Y28007D01*
X443534Y28042D01*
X443535Y28042D01*
X443534Y28042D01*
X443537Y28077D01*
X443538Y28102D01*
X443541Y28136D01*
X443543Y28171D01*
X443545Y28196D01*
X443547Y28231D01*
X443549Y28266D01*
X443551Y28290D01*
X443551Y28291D01*
X443553Y28325D01*
X443555Y28360D01*
X443557Y28385D01*
X443559Y28420D01*
X443563Y28479D01*
X443565Y28514D01*
X443567Y28539D01*
X443569Y28574D01*
X443572Y28608D01*
X443572Y28609D01*
X443573Y28633D01*
X443576Y28668D01*
X443578Y28703D01*
X443579Y28728D01*
X443582Y28762D01*
X443582Y28763D01*
X443584Y28797D01*
X443586Y28822D01*
X443588Y28857D01*
X443590Y28892D01*
X443592Y28917D01*
X443594Y28951D01*
X443598Y29011D01*
X443600Y29046D01*
X443602Y29071D01*
X443604Y29105D01*
X443606Y29140D01*
X443608Y29165D01*
X443610Y29200D01*
X443613Y29235D01*
X443614Y29259D01*
X443617Y29294D01*
X443619Y29329D01*
X443620Y29354D01*
X443623Y29389D01*
X443625Y29423D01*
X443627Y29448D01*
X443629Y29483D01*
X443631Y29508D01*
X443633Y29543D01*
X443635Y29577D01*
X443637Y29602D01*
X443639Y29637D01*
X443641Y29672D01*
X443643Y29697D01*
X443645Y29731D01*
X443647Y29766D01*
X443648Y29766D01*
X443647Y29766D01*
X443649Y29791D01*
X443651Y29826D01*
X443654Y29861D01*
X443655Y29885D01*
X443658Y29920D01*
X443660Y29955D01*
X443661Y29980D01*
X443662Y29980D01*
X443661Y29980D01*
X443663Y30000D01*
X443663Y320000D01*
X443493Y322590D01*
X443493Y322591D01*
X442152Y327594D01*
X442152Y327595D01*
X439562Y332080D01*
X439561Y332080D01*
X439562Y332081D01*
X435899Y335744D01*
X435898Y335744D01*
X431413Y338334D01*
X431412Y338334D01*
X426409Y339675D01*
X426408Y339675D01*
X426368Y339678D01*
X426367Y339678D01*
X426292Y339683D01*
X426216Y339688D01*
X426140Y339693D01*
X426064Y339698D01*
X425988Y339703D01*
X425913Y339708D01*
X425837Y339713D01*
X425761Y339717D01*
X425685Y339722D01*
X425609Y339727D01*
X425534Y339732D01*
X425533Y339732D01*
X425458Y339737D01*
X425382Y339742D01*
X425306Y339747D01*
X425230Y339752D01*
X425155Y339757D01*
X425154Y339757D01*
X425079Y339762D01*
X425003Y339767D01*
X424927Y339772D01*
X424851Y339777D01*
X424775Y339782D01*
X424700Y339787D01*
X424624Y339792D01*
X424548Y339797D01*
X424472Y339802D01*
X424396Y339807D01*
X424321Y339812D01*
X424320Y339812D01*
X424245Y339817D01*
X424169Y339822D01*
X424093Y339827D01*
X424017Y339832D01*
X423942Y339837D01*
X423941Y339837D01*
X423866Y339842D01*
X423818Y339845D01*
X30000Y339845D01*
X29952Y339842D01*
X29877Y339837D01*
X29876Y339837D01*
X29801Y339832D01*
X29725Y339827D01*
X29649Y339822D01*
X29573Y339817D01*
X29498Y339812D01*
X29497Y339812D01*
X29422Y339807D01*
X29346Y339802D01*
X29270Y339797D01*
X29194Y339792D01*
X29119Y339787D01*
X29118Y339787D01*
X29043Y339782D01*
X28967Y339777D01*
X28891Y339772D01*
X28815Y339767D01*
X28739Y339762D01*
X28664Y339757D01*
X28663Y339757D01*
X28588Y339752D01*
X28512Y339747D01*
X28436Y339742D01*
X28360Y339737D01*
X28285Y339732D01*
X28284Y339732D01*
X28209Y339727D01*
X28133Y339722D01*
X28057Y339717D01*
X27981Y339713D01*
X27905Y339708D01*
X27830Y339703D01*
X27829Y339703D01*
X27754Y339698D01*
X27678Y339693D01*
X27602Y339688D01*
X27526Y339683D01*
X27451Y339678D01*
X27450Y339678D01*
X27410Y339675D01*
X27409Y339675D01*
X22406Y338334D01*
X22405Y338334D01*
X17920Y335744D01*
X17920Y335743D01*
X17919Y335744D01*
X14256Y332081D01*
X14256Y332080D01*
X11666Y327595D01*
X11666Y327594D01*
X10325Y322591D01*
X10325Y322590D01*
X10324Y322576D01*
X10322Y322541D01*
X10320Y322516D01*
X10318Y322482D01*
X10318Y322481D01*
X10316Y322447D01*
X10314Y322422D01*
X10312Y322387D01*
X10309Y322352D01*
X10308Y322327D01*
X10305Y322293D01*
X10303Y322258D01*
X10302Y322233D01*
X10299Y322198D01*
X10297Y322164D01*
X10297Y322163D01*
X10295Y322139D01*
X10293Y322104D01*
X10291Y322069D01*
X10289Y322044D01*
X10287Y322009D01*
X10283Y321950D01*
X10281Y321915D01*
X10279Y321890D01*
X10277Y321855D01*
X10275Y321821D01*
X10274Y321821D01*
X10275Y321821D01*
X10273Y321796D01*
X10271Y321761D01*
X10268Y321726D01*
X10267Y321701D01*
X10264Y321667D01*
X10262Y321632D01*
X10261Y321607D01*
X10260Y321607D01*
X10258Y321572D01*
X10256Y321537D01*
X10254Y321513D01*
X10252Y321478D01*
X10250Y321443D01*
X10248Y321418D01*
X10246Y321383D01*
X10244Y321349D01*
X10242Y321324D01*
X10240Y321289D01*
X10237Y321254D01*
X10236Y321229D01*
X10233Y321195D01*
X10231Y321160D01*
X10230Y321135D01*
X10227Y321100D01*
X10225Y321065D01*
X10223Y321041D01*
X10221Y321006D01*
X10217Y320946D01*
X10215Y320911D01*
X10213Y320887D01*
X10213Y320886D01*
X10211Y320852D01*
X10209Y320817D01*
X10207Y320792D01*
X10205Y320757D01*
X10203Y320723D01*
X10201Y320698D01*
X10199Y320663D01*
X10196Y320628D01*
X10195Y320603D01*
X10192Y320569D01*
X10192Y320568D01*
X10190Y320534D01*
X10189Y320509D01*
X10186Y320474D01*
X10184Y320439D01*
X10182Y320414D01*
X10180Y320380D01*
X10178Y320345D01*
X10176Y320320D01*
X10174Y320285D01*
X10172Y320251D01*
X10172Y320250D01*
X10170Y320226D01*
X10168Y320191D01*
X10165Y320156D01*
X10164Y320131D01*
X10162Y320097D01*
X10161Y320096D01*
X10162Y320096D01*
X10159Y320062D01*
X10158Y320037D01*
X10155Y320002D01*
X10155Y320000D01*
X10155Y30000D01*
X10325Y27410D01*
X10325Y27409D01*
X11666Y22406D01*
X11666Y22405D01*
X14256Y17920D01*
X14257Y17920D01*
X14256Y17919D01*
X17919Y14256D01*
X17920Y14256D01*
X22405Y11666D01*
X22406Y11666D01*
X27409Y10325D01*
X27410Y10325D01*
X30000Y10155D01*
X423818Y10155D01*
X423818Y10155D01*
G37*
%LPC*%
G36*
X100550Y22865D02*
X100550Y22865D01*
X86365Y37050D01*
X86365Y138648D01*
X86363Y138650D01*
X86363Y138651D01*
X67455Y157560D01*
X67448Y157560D01*
X66865Y156977D01*
X60135Y156977D01*
X55377Y161735D01*
X55377Y168465D01*
X60135Y173223D01*
X66865Y173223D01*
X71623Y168465D01*
X71623Y161735D01*
X71040Y161152D01*
X71040Y161146D01*
X71040Y161145D01*
X91435Y140750D01*
X91435Y39152D01*
X91437Y39150D01*
X91437Y39149D01*
X102649Y27937D01*
X102651Y27936D01*
X102652Y27935D01*
X278348Y27935D01*
X278350Y27937D01*
X278351Y27937D01*
X302263Y51849D01*
X302264Y51851D01*
X302265Y51852D01*
X302265Y79376D01*
X302260Y79381D01*
X302260Y79380D01*
X302260Y79381D01*
X294471Y79381D01*
X293581Y80271D01*
X293581Y96900D01*
X293576Y96905D01*
X293576Y96904D01*
X293576Y96905D01*
X290624Y96905D01*
X290619Y96900D01*
X290619Y80271D01*
X289729Y79381D01*
X278168Y79381D01*
X278166Y79379D01*
X278165Y79379D01*
X274610Y75825D01*
X146998Y75825D01*
X144025Y78798D01*
X144025Y99002D01*
X207988Y162966D01*
X207988Y162968D01*
X207989Y162968D01*
X207988Y162970D01*
X207989Y162971D01*
X207777Y163484D01*
X207777Y166716D01*
X209013Y169701D01*
X211299Y171987D01*
X214284Y173223D01*
X217516Y173223D01*
X220501Y171987D01*
X222787Y169701D01*
X224023Y166716D01*
X224023Y163484D01*
X222787Y160499D01*
X220501Y158213D01*
X217516Y156977D01*
X214284Y156977D01*
X211299Y158213D01*
X210856Y158656D01*
X210854Y158656D01*
X210853Y158656D01*
X210849Y158656D01*
X150621Y98428D01*
X150621Y98426D01*
X150620Y98426D01*
X150619Y98425D01*
X150620Y98423D01*
X150620Y98421D01*
X150623Y98421D01*
X150624Y98419D01*
X160032Y98419D01*
X160034Y98421D01*
X160035Y98421D01*
X180247Y118633D01*
X369045Y118633D01*
X369047Y118634D01*
X369049Y118634D01*
X411560Y161145D01*
X411560Y161152D01*
X410977Y161735D01*
X410977Y166311D01*
X410976Y166313D01*
X410976Y166314D01*
X410974Y166314D01*
X410972Y166316D01*
X410971Y166315D01*
X410968Y166315D01*
X407002Y162349D01*
X407002Y162346D01*
X407001Y162345D01*
X407001Y161884D01*
X398538Y153421D01*
X249394Y153421D01*
X219584Y183230D01*
X219582Y183230D01*
X219581Y183232D01*
X219580Y183231D01*
X219579Y183231D01*
X217516Y182377D01*
X214284Y182377D01*
X211299Y183613D01*
X209013Y185899D01*
X207777Y188884D01*
X207777Y192116D01*
X209013Y195101D01*
X211299Y197387D01*
X214284Y198623D01*
X217516Y198623D01*
X220501Y197387D01*
X222787Y195101D01*
X223641Y193038D01*
X223644Y193037D01*
X223646Y193035D01*
X284354Y193035D01*
X284357Y193038D01*
X284359Y193038D01*
X285213Y195101D01*
X287499Y197387D01*
X290484Y198623D01*
X293716Y198623D01*
X296701Y197387D01*
X298987Y195101D01*
X300223Y192116D01*
X300223Y188884D01*
X298987Y185899D01*
X296701Y183613D01*
X293716Y182377D01*
X290484Y182377D01*
X287499Y183613D01*
X285213Y185899D01*
X284359Y187962D01*
X284356Y187963D01*
X284354Y187965D01*
X223646Y187965D01*
X223643Y187962D01*
X223641Y187962D01*
X223169Y186821D01*
X223169Y186820D01*
X223168Y186820D01*
X223170Y186818D01*
X223170Y186816D01*
X251493Y158493D01*
X251495Y158492D01*
X251496Y158491D01*
X287209Y158491D01*
X287210Y158492D01*
X287212Y158492D01*
X287212Y158494D01*
X287214Y158495D01*
X287212Y158497D01*
X287212Y158500D01*
X285213Y160499D01*
X283977Y163484D01*
X283977Y166716D01*
X285213Y169701D01*
X287499Y171987D01*
X290484Y173223D01*
X293716Y173223D01*
X295779Y172369D01*
X295782Y172370D01*
X295784Y172370D01*
X312663Y189249D01*
X312664Y189251D01*
X312665Y189252D01*
X312665Y255176D01*
X312660Y255181D01*
X312660Y255180D01*
X312660Y255181D01*
X307071Y255181D01*
X306181Y256071D01*
X306181Y277329D01*
X307071Y278219D01*
X323329Y278219D01*
X324219Y277329D01*
X324219Y256071D01*
X323329Y255181D01*
X317740Y255181D01*
X317735Y255176D01*
X317736Y255176D01*
X317735Y255176D01*
X317735Y187150D01*
X316249Y185663D01*
X299370Y168784D01*
X299369Y168781D01*
X299369Y168779D01*
X300223Y166716D01*
X300223Y163484D01*
X298987Y160499D01*
X296988Y158500D01*
X296987Y158498D01*
X296986Y158497D01*
X296987Y158495D01*
X296987Y158493D01*
X296989Y158493D01*
X296991Y158491D01*
X387372Y158491D01*
X387373Y158492D01*
X387375Y158492D01*
X387375Y158494D01*
X387377Y158495D01*
X387375Y158497D01*
X387376Y158500D01*
X384561Y161314D01*
X384561Y165095D01*
X393700Y165095D01*
X393705Y165099D01*
X393705Y165100D01*
X393705Y174239D01*
X397486Y174239D01*
X402839Y168886D01*
X402839Y165368D01*
X402840Y165367D01*
X402840Y165365D01*
X402842Y165365D01*
X402844Y165363D01*
X402844Y165364D01*
X402845Y165364D01*
X402846Y165365D01*
X402848Y165365D01*
X403417Y165934D01*
X414262Y176779D01*
X423938Y176779D01*
X430779Y169938D01*
X430779Y160262D01*
X374480Y103963D01*
X255251Y103963D01*
X255249Y103962D01*
X255247Y103962D01*
X253269Y101984D01*
X253269Y101982D01*
X253268Y101981D01*
X253269Y101979D01*
X253269Y101977D01*
X253271Y101977D01*
X253272Y101975D01*
X338110Y101975D01*
X341665Y98421D01*
X341667Y98420D01*
X341668Y98419D01*
X353229Y98419D01*
X354119Y97529D01*
X354119Y80271D01*
X353229Y79381D01*
X338971Y79381D01*
X338081Y80271D01*
X338081Y94832D01*
X338079Y94834D01*
X338079Y94835D01*
X336011Y96903D01*
X336009Y96904D01*
X336008Y96905D01*
X309624Y96905D01*
X309619Y96900D01*
X309619Y80271D01*
X308729Y79381D01*
X307340Y79381D01*
X307335Y79376D01*
X307336Y79376D01*
X307335Y79376D01*
X307335Y49750D01*
X280450Y22865D01*
X100550Y22865D01*
G37*
%LPD*%
%LPC*%
G36*
X44996Y274845D02*
X44996Y274845D01*
X35751Y278674D01*
X28674Y285751D01*
X24845Y294996D01*
X24845Y305004D01*
X28674Y314249D01*
X35751Y321326D01*
X44996Y325155D01*
X55004Y325155D01*
X64249Y321326D01*
X71326Y314249D01*
X75155Y305004D01*
X75155Y294996D01*
X71326Y285751D01*
X64249Y278674D01*
X55004Y274845D01*
X44996Y274845D01*
G37*
%LPD*%
%LPC*%
G36*
X394996Y274845D02*
X394996Y274845D01*
X385751Y278674D01*
X378674Y285751D01*
X374845Y294996D01*
X374845Y305004D01*
X378674Y314249D01*
X385751Y321326D01*
X394996Y325155D01*
X405004Y325155D01*
X414249Y321326D01*
X421326Y314249D01*
X425155Y305004D01*
X425155Y294996D01*
X421326Y285751D01*
X414249Y278674D01*
X405004Y274845D01*
X394996Y274845D01*
G37*
%LPD*%
%LPC*%
G36*
X44996Y24845D02*
X44996Y24845D01*
X35751Y28674D01*
X28674Y35751D01*
X24845Y44996D01*
X24845Y55004D01*
X28674Y64249D01*
X35751Y71326D01*
X44996Y75155D01*
X55004Y75155D01*
X64249Y71326D01*
X71326Y64249D01*
X75155Y55004D01*
X75155Y44996D01*
X71326Y35751D01*
X64249Y28674D01*
X55004Y24845D01*
X44996Y24845D01*
G37*
%LPD*%
%LPC*%
G36*
X394996Y24845D02*
X394996Y24845D01*
X385751Y28674D01*
X378674Y35751D01*
X374845Y44996D01*
X374845Y55004D01*
X378674Y64249D01*
X385751Y71326D01*
X394996Y75155D01*
X405004Y75155D01*
X414249Y71326D01*
X421326Y64249D01*
X425155Y55004D01*
X425155Y44996D01*
X421326Y35751D01*
X414249Y28674D01*
X405004Y24845D01*
X394996Y24845D01*
G37*
%LPD*%
%LPC*%
G36*
X34735Y156977D02*
X34735Y156977D01*
X29977Y161735D01*
X29977Y168465D01*
X34735Y173223D01*
X35560Y173223D01*
X35565Y173228D01*
X35564Y173228D01*
X35565Y173228D01*
X35565Y204250D01*
X37051Y205737D01*
X89833Y258518D01*
X89833Y258519D01*
X89834Y258519D01*
X89833Y258521D01*
X89833Y258525D01*
X89832Y258525D01*
X89831Y258526D01*
X88803Y258952D01*
X86232Y261523D01*
X84841Y264882D01*
X84841Y268518D01*
X86232Y271877D01*
X88803Y274448D01*
X92162Y275839D01*
X111038Y275839D01*
X114397Y274448D01*
X116968Y271877D01*
X118359Y268518D01*
X118359Y264882D01*
X116968Y261523D01*
X114397Y258952D01*
X111038Y257561D01*
X96048Y257561D01*
X96046Y257559D01*
X96045Y257559D01*
X40637Y202151D01*
X40637Y202149D01*
X40635Y202148D01*
X40635Y173228D01*
X40640Y173223D01*
X40640Y173224D01*
X40640Y173223D01*
X41465Y173223D01*
X46223Y168465D01*
X46223Y161735D01*
X41465Y156977D01*
X34735Y156977D01*
G37*
%LPD*%
%LPC*%
G36*
X370571Y217081D02*
X370571Y217081D01*
X369681Y217971D01*
X369681Y239229D01*
X370571Y240119D01*
X386829Y240119D01*
X387719Y239229D01*
X387719Y217971D01*
X386829Y217081D01*
X370571Y217081D01*
G37*
%LPD*%
%LPC*%
G36*
X357971Y79381D02*
X357971Y79381D01*
X357081Y80271D01*
X357081Y97529D01*
X357971Y98419D01*
X372229Y98419D01*
X373119Y97529D01*
X373119Y80271D01*
X372229Y79381D01*
X357971Y79381D01*
G37*
%LPD*%
%LPC*%
G36*
X290484Y131577D02*
X290484Y131577D01*
X287499Y132813D01*
X285213Y135099D01*
X283977Y138084D01*
X283977Y141316D01*
X285213Y144301D01*
X287499Y146587D01*
X290484Y147823D01*
X293716Y147823D01*
X296701Y146587D01*
X298987Y144301D01*
X300223Y141316D01*
X300223Y138084D01*
X298987Y135099D01*
X296701Y132813D01*
X293716Y131577D01*
X290484Y131577D01*
G37*
%LPD*%
%LPC*%
G36*
X214284Y131577D02*
X214284Y131577D01*
X211299Y132813D01*
X209013Y135099D01*
X207777Y138084D01*
X207777Y141316D01*
X209013Y144301D01*
X211299Y146587D01*
X214284Y147823D01*
X217516Y147823D01*
X220501Y146587D01*
X222787Y144301D01*
X224023Y141316D01*
X224023Y138084D01*
X222787Y135099D01*
X220501Y132813D01*
X217516Y131577D01*
X214284Y131577D01*
G37*
%LPD*%
%LPC*%
G36*
X290484Y207777D02*
X290484Y207777D01*
X287499Y209013D01*
X285213Y211299D01*
X283977Y214284D01*
X283977Y217516D01*
X285213Y220501D01*
X287499Y222787D01*
X290484Y224023D01*
X293716Y224023D01*
X296701Y222787D01*
X298987Y220501D01*
X300223Y217516D01*
X300223Y214284D01*
X298987Y211299D01*
X296701Y209013D01*
X293716Y207777D01*
X290484Y207777D01*
G37*
%LPD*%
%LPC*%
G36*
X101605Y292095D02*
X101605Y292095D01*
X119375Y292095D01*
X119375Y291100D01*
X119373Y291089D01*
X119371Y291079D01*
X119368Y291064D01*
X119365Y291049D01*
X119363Y291039D01*
X119360Y291024D01*
X119357Y291009D01*
X119355Y291000D01*
X119355Y290999D01*
X119352Y290985D01*
X119349Y290970D01*
X119347Y290960D01*
X119344Y290945D01*
X119341Y290930D01*
X119339Y290920D01*
X119336Y290905D01*
X119334Y290890D01*
X119333Y290890D01*
X119334Y290890D01*
X119329Y290865D01*
X119326Y290850D01*
X119321Y290826D01*
X119318Y290811D01*
X119313Y290786D01*
X119310Y290771D01*
X119305Y290746D01*
X119302Y290731D01*
X119297Y290706D01*
X119294Y290691D01*
X119291Y290677D01*
X119291Y290676D01*
X119289Y290667D01*
X119286Y290652D01*
X119283Y290637D01*
X119281Y290627D01*
X119278Y290612D01*
X119275Y290597D01*
X119273Y290587D01*
X119270Y290572D01*
X119267Y290557D01*
X119265Y290547D01*
X119262Y290532D01*
X119259Y290518D01*
X119259Y290517D01*
X119257Y290508D01*
X119254Y290493D01*
X119251Y290478D01*
X119250Y290468D01*
X119249Y290468D01*
X119247Y290453D01*
X119244Y290438D01*
X119239Y290413D01*
X119236Y290398D01*
X119231Y290373D01*
X119228Y290359D01*
X119228Y290358D01*
X119223Y290334D01*
X119220Y290319D01*
X119215Y290294D01*
X119212Y290279D01*
X119207Y290254D01*
X119204Y290239D01*
X119201Y290224D01*
X119199Y290214D01*
X119196Y290200D01*
X119196Y290199D01*
X119193Y290185D01*
X119191Y290175D01*
X119188Y290160D01*
X119185Y290145D01*
X119183Y290135D01*
X119180Y290120D01*
X119177Y290105D01*
X119175Y290095D01*
X119172Y290080D01*
X119169Y290065D01*
X119167Y290055D01*
X119165Y290041D01*
X119164Y290041D01*
X119165Y290040D01*
X119162Y290026D01*
X119160Y290016D01*
X119157Y290001D01*
X119154Y289986D01*
X119149Y289961D01*
X119146Y289946D01*
X119141Y289921D01*
X119138Y289906D01*
X119133Y289882D01*
X119133Y289881D01*
X119130Y289867D01*
X119125Y289842D01*
X119122Y289827D01*
X119117Y289802D01*
X119114Y289787D01*
X119109Y289762D01*
X119106Y289747D01*
X119103Y289732D01*
X119101Y289723D01*
X119101Y289722D01*
X119098Y289708D01*
X119095Y289693D01*
X119093Y289683D01*
X119090Y289668D01*
X119087Y289653D01*
X119085Y289643D01*
X119082Y289628D01*
X119080Y289613D01*
X119079Y289613D01*
X119080Y289613D01*
X119078Y289603D01*
X119075Y289588D01*
X119072Y289573D01*
X119070Y289564D01*
X119067Y289549D01*
X119064Y289534D01*
X119059Y289509D01*
X119056Y289494D01*
X119051Y289469D01*
X119048Y289454D01*
X119043Y289429D01*
X119040Y289414D01*
X119035Y289390D01*
X119032Y289375D01*
X119027Y289350D01*
X119024Y289335D01*
X119019Y289310D01*
X119016Y289295D01*
X119013Y289280D01*
X119011Y289270D01*
X119008Y289255D01*
X119005Y289241D01*
X119003Y289231D01*
X119000Y289216D01*
X118997Y289201D01*
X118996Y289191D01*
X118995Y289191D01*
X118993Y289176D01*
X118990Y289161D01*
X118988Y289151D01*
X118985Y289138D01*
X118219Y287290D01*
X117108Y285626D01*
X115694Y284212D01*
X114030Y283101D01*
X112182Y282335D01*
X110220Y281945D01*
X101605Y281945D01*
X101605Y292095D01*
G37*
%LPD*%
%LPC*%
G36*
X101605Y292105D02*
X101605Y292105D01*
X101605Y302255D01*
X110220Y302255D01*
X112182Y301865D01*
X114030Y301099D01*
X115694Y299988D01*
X117108Y298574D01*
X118219Y296910D01*
X118985Y295062D01*
X119375Y293100D01*
X119375Y292105D01*
X101605Y292105D01*
G37*
%LPD*%
%LPC*%
G36*
X83825Y292105D02*
X83825Y292105D01*
X83825Y293100D01*
X83826Y293105D01*
X83829Y293120D01*
X83834Y293145D01*
X83837Y293160D01*
X83842Y293184D01*
X83842Y293185D01*
X83845Y293199D01*
X83847Y293214D01*
X83848Y293214D01*
X83847Y293214D01*
X83849Y293224D01*
X83852Y293239D01*
X83855Y293254D01*
X83857Y293264D01*
X83860Y293279D01*
X83863Y293294D01*
X83865Y293304D01*
X83868Y293319D01*
X83871Y293334D01*
X83873Y293343D01*
X83876Y293358D01*
X83879Y293373D01*
X83881Y293383D01*
X83884Y293398D01*
X83887Y293413D01*
X83892Y293438D01*
X83895Y293453D01*
X83900Y293478D01*
X83903Y293493D01*
X83908Y293517D01*
X83911Y293532D01*
X83916Y293557D01*
X83919Y293572D01*
X83924Y293597D01*
X83927Y293612D01*
X83931Y293637D01*
X83932Y293637D01*
X83934Y293652D01*
X83937Y293666D01*
X83939Y293676D01*
X83942Y293691D01*
X83945Y293706D01*
X83947Y293716D01*
X83950Y293731D01*
X83953Y293746D01*
X83955Y293756D01*
X83958Y293771D01*
X83961Y293786D01*
X83963Y293796D01*
X83966Y293811D01*
X83969Y293825D01*
X83971Y293835D01*
X83974Y293850D01*
X83977Y293865D01*
X83982Y293890D01*
X83985Y293905D01*
X83990Y293930D01*
X83993Y293945D01*
X83998Y293970D01*
X84001Y293984D01*
X84006Y294009D01*
X84009Y294024D01*
X84014Y294049D01*
X84016Y294064D01*
X84017Y294064D01*
X84016Y294064D01*
X84021Y294089D01*
X84024Y294104D01*
X84027Y294119D01*
X84029Y294129D01*
X84032Y294143D01*
X84035Y294158D01*
X84037Y294168D01*
X84040Y294183D01*
X84043Y294198D01*
X84045Y294208D01*
X84048Y294223D01*
X84051Y294238D01*
X84053Y294248D01*
X84056Y294263D01*
X84059Y294278D01*
X84061Y294288D01*
X84064Y294302D01*
X84067Y294317D01*
X84069Y294327D01*
X84072Y294342D01*
X84075Y294357D01*
X84080Y294382D01*
X84083Y294397D01*
X84088Y294422D01*
X84091Y294437D01*
X84096Y294461D01*
X84099Y294476D01*
X84103Y294501D01*
X84106Y294516D01*
X84111Y294541D01*
X84114Y294556D01*
X84117Y294571D01*
X84119Y294581D01*
X84122Y294596D01*
X84125Y294610D01*
X84125Y294611D01*
X84127Y294620D01*
X84130Y294635D01*
X84133Y294650D01*
X84135Y294660D01*
X84138Y294675D01*
X84141Y294690D01*
X84143Y294700D01*
X84146Y294715D01*
X84149Y294730D01*
X84151Y294740D01*
X84154Y294755D01*
X84157Y294769D01*
X84157Y294770D01*
X84159Y294779D01*
X84162Y294794D01*
X84165Y294809D01*
X84170Y294834D01*
X84173Y294849D01*
X84178Y294874D01*
X84181Y294889D01*
X84185Y294914D01*
X84186Y294914D01*
X84188Y294928D01*
X84188Y294929D01*
X84193Y294953D01*
X84196Y294968D01*
X84201Y294993D01*
X84204Y295008D01*
X84207Y295023D01*
X84209Y295033D01*
X84212Y295048D01*
X84215Y295062D01*
X84981Y296910D01*
X86092Y298574D01*
X87506Y299988D01*
X89170Y301099D01*
X91018Y301865D01*
X92980Y302255D01*
X101595Y302255D01*
X101595Y292105D01*
X83825Y292105D01*
G37*
%LPD*%
%LPC*%
G36*
X92980Y281945D02*
X92980Y281945D01*
X91018Y282335D01*
X89170Y283101D01*
X87506Y284212D01*
X86092Y285626D01*
X84981Y287290D01*
X84215Y289138D01*
X83825Y291100D01*
X83825Y292095D01*
X101595Y292095D01*
X101595Y281945D01*
X92980Y281945D01*
G37*
%LPD*%
%LPC*%
G36*
X408705Y228605D02*
X408705Y228605D01*
X408705Y241135D01*
X416704Y241135D01*
X417636Y240749D01*
X418349Y240036D01*
X418735Y239104D01*
X418735Y228605D01*
X408705Y228605D01*
G37*
%LPD*%
%LPC*%
G36*
X345205Y266705D02*
X345205Y266705D01*
X345205Y279235D01*
X353204Y279235D01*
X354136Y278849D01*
X354849Y278136D01*
X355235Y277204D01*
X355235Y266705D01*
X345205Y266705D01*
G37*
%LPD*%
%LPC*%
G36*
X335165Y266705D02*
X335165Y266705D01*
X335165Y277204D01*
X335551Y278136D01*
X336264Y278849D01*
X337196Y279235D01*
X345195Y279235D01*
X345195Y266705D01*
X335165Y266705D01*
G37*
%LPD*%
%LPC*%
G36*
X398665Y228605D02*
X398665Y228605D01*
X398665Y239104D01*
X399051Y240036D01*
X399764Y240749D01*
X400696Y241135D01*
X408695Y241135D01*
X408695Y228605D01*
X398665Y228605D01*
G37*
%LPD*%
%LPC*%
G36*
X408705Y216065D02*
X408705Y216065D01*
X408705Y228595D01*
X418735Y228595D01*
X418735Y218096D01*
X418349Y217164D01*
X417636Y216451D01*
X416704Y216065D01*
X408705Y216065D01*
G37*
%LPD*%
%LPC*%
G36*
X345205Y254165D02*
X345205Y254165D01*
X345205Y266695D01*
X355235Y266695D01*
X355235Y256196D01*
X354849Y255264D01*
X354136Y254551D01*
X353204Y254165D01*
X345205Y254165D01*
G37*
%LPD*%
%LPC*%
G36*
X400696Y216065D02*
X400696Y216065D01*
X399764Y216451D01*
X399051Y217164D01*
X398665Y218096D01*
X398665Y228595D01*
X408695Y228595D01*
X408695Y216065D01*
X400696Y216065D01*
G37*
%LPD*%
%LPC*%
G36*
X337196Y254165D02*
X337196Y254165D01*
X336264Y254551D01*
X335551Y255264D01*
X335165Y256196D01*
X335165Y266695D01*
X345195Y266695D01*
X345195Y254165D01*
X337196Y254165D01*
G37*
%LPD*%
%LPC*%
G36*
X384561Y165105D02*
X384561Y165105D01*
X384561Y168886D01*
X389914Y174239D01*
X393695Y174239D01*
X393695Y165105D01*
X384561Y165105D01*
G37*
%LPD*%
%LPC*%
G36*
X215905Y206761D02*
X215905Y206761D01*
X215905Y215895D01*
X225039Y215895D01*
X225039Y215000D01*
X225037Y214988D01*
X225034Y214973D01*
X225032Y214963D01*
X225029Y214948D01*
X225026Y214933D01*
X225021Y214908D01*
X225018Y214893D01*
X225013Y214868D01*
X225010Y214853D01*
X225005Y214829D01*
X225002Y214814D01*
X224999Y214799D01*
X224997Y214789D01*
X224994Y214774D01*
X224991Y214759D01*
X224989Y214749D01*
X224986Y214734D01*
X224983Y214719D01*
X224981Y214709D01*
X224978Y214694D01*
X224975Y214680D01*
X224975Y214679D01*
X224971Y214655D01*
X224968Y214640D01*
X224963Y214615D01*
X224960Y214600D01*
X224955Y214575D01*
X224952Y214560D01*
X224947Y214535D01*
X224944Y214521D01*
X224944Y214520D01*
X224941Y214506D01*
X224939Y214496D01*
X224936Y214481D01*
X224933Y214466D01*
X224931Y214456D01*
X224928Y214441D01*
X224925Y214426D01*
X224923Y214416D01*
X224920Y214401D01*
X224917Y214386D01*
X224912Y214362D01*
X224912Y214361D01*
X224909Y214347D01*
X224904Y214322D01*
X224901Y214307D01*
X224896Y214282D01*
X224893Y214267D01*
X224890Y214252D01*
X224889Y214242D01*
X224888Y214242D01*
X224886Y214227D01*
X224883Y214212D01*
X224881Y214203D01*
X224881Y214202D01*
X224878Y214188D01*
X224875Y214173D01*
X224873Y214163D01*
X224870Y214148D01*
X224867Y214133D01*
X224862Y214108D01*
X224859Y214093D01*
X224854Y214068D01*
X224851Y214053D01*
X224846Y214029D01*
X224843Y214014D01*
X224840Y213999D01*
X224838Y213989D01*
X224835Y213974D01*
X224832Y213959D01*
X224830Y213949D01*
X224827Y213934D01*
X224824Y213919D01*
X224822Y213909D01*
X224819Y213894D01*
X224816Y213880D01*
X224816Y213879D01*
X224811Y213855D01*
X224808Y213840D01*
X224804Y213815D01*
X224803Y213815D01*
X224801Y213800D01*
X224796Y213775D01*
X224793Y213760D01*
X224788Y213735D01*
X224785Y213721D01*
X224785Y213720D01*
X224782Y213706D01*
X224780Y213696D01*
X224777Y213681D01*
X224774Y213666D01*
X224772Y213656D01*
X224769Y213641D01*
X224766Y213626D01*
X224764Y213616D01*
X224761Y213601D01*
X224758Y213586D01*
X224753Y213562D01*
X224753Y213561D01*
X224750Y213547D01*
X224745Y213522D01*
X224742Y213507D01*
X224737Y213482D01*
X224734Y213467D01*
X224731Y213452D01*
X224729Y213442D01*
X224726Y213427D01*
X224723Y213412D01*
X224721Y213403D01*
X224719Y213388D01*
X224718Y213388D01*
X224719Y213388D01*
X224716Y213373D01*
X224714Y213363D01*
X224711Y213348D01*
X224708Y213333D01*
X224703Y213308D01*
X224700Y213293D01*
X224695Y213268D01*
X224692Y213253D01*
X224688Y213234D01*
X223999Y211571D01*
X222999Y210074D01*
X221726Y208801D01*
X220229Y207801D01*
X218566Y207112D01*
X216800Y206761D01*
X215905Y206761D01*
G37*
%LPD*%
%LPC*%
G36*
X206761Y215905D02*
X206761Y215905D01*
X206761Y216800D01*
X206764Y216815D01*
X206769Y216840D01*
X206772Y216855D01*
X206777Y216879D01*
X206780Y216894D01*
X206782Y216909D01*
X206783Y216909D01*
X206782Y216909D01*
X206784Y216919D01*
X206787Y216934D01*
X206790Y216949D01*
X206792Y216959D01*
X206795Y216974D01*
X206798Y216989D01*
X206800Y216999D01*
X206803Y217014D01*
X206806Y217028D01*
X206811Y217053D01*
X206814Y217068D01*
X206819Y217093D01*
X206822Y217108D01*
X206827Y217133D01*
X206830Y217148D01*
X206835Y217173D01*
X206838Y217187D01*
X206841Y217202D01*
X206843Y217212D01*
X206846Y217227D01*
X206849Y217242D01*
X206851Y217252D01*
X206854Y217267D01*
X206857Y217282D01*
X206859Y217292D01*
X206862Y217307D01*
X206865Y217322D01*
X206869Y217346D01*
X206872Y217361D01*
X206877Y217386D01*
X206880Y217401D01*
X206885Y217426D01*
X206888Y217441D01*
X206891Y217456D01*
X206893Y217466D01*
X206896Y217481D01*
X206899Y217495D01*
X206899Y217496D01*
X206901Y217505D01*
X206904Y217520D01*
X206907Y217535D01*
X206909Y217545D01*
X206912Y217560D01*
X206915Y217575D01*
X206920Y217600D01*
X206923Y217615D01*
X206928Y217640D01*
X206931Y217654D01*
X206931Y217655D01*
X206936Y217679D01*
X206939Y217694D01*
X206942Y217709D01*
X206944Y217719D01*
X206947Y217734D01*
X206950Y217749D01*
X206951Y217759D01*
X206952Y217759D01*
X206954Y217774D01*
X206957Y217789D01*
X206959Y217799D01*
X206962Y217813D01*
X206962Y217814D01*
X206965Y217828D01*
X206967Y217838D01*
X206970Y217853D01*
X206973Y217868D01*
X206978Y217893D01*
X206981Y217908D01*
X206986Y217933D01*
X206989Y217948D01*
X206994Y217972D01*
X206994Y217973D01*
X206997Y217987D01*
X207000Y218002D01*
X207002Y218012D01*
X207005Y218027D01*
X207008Y218042D01*
X207010Y218052D01*
X207013Y218067D01*
X207016Y218082D01*
X207018Y218092D01*
X207021Y218107D01*
X207024Y218122D01*
X207029Y218146D01*
X207032Y218161D01*
X207036Y218186D01*
X207037Y218186D01*
X207039Y218201D01*
X207044Y218226D01*
X207047Y218241D01*
X207050Y218256D01*
X207052Y218266D01*
X207055Y218281D01*
X207058Y218295D01*
X207058Y218296D01*
X207060Y218305D01*
X207063Y218320D01*
X207066Y218335D01*
X207068Y218345D01*
X207071Y218360D01*
X207074Y218375D01*
X207079Y218400D01*
X207082Y218415D01*
X207087Y218440D01*
X207090Y218454D01*
X207090Y218455D01*
X207095Y218479D01*
X207098Y218494D01*
X207103Y218519D01*
X207106Y218534D01*
X207109Y218549D01*
X207111Y218559D01*
X207112Y218566D01*
X207801Y220229D01*
X208801Y221726D01*
X210074Y222999D01*
X211571Y223999D01*
X213234Y224688D01*
X215000Y225039D01*
X215895Y225039D01*
X215895Y215905D01*
X206761Y215905D01*
G37*
%LPD*%
%LPC*%
G36*
X215905Y215905D02*
X215905Y215905D01*
X215905Y225039D01*
X216800Y225039D01*
X218566Y224688D01*
X220229Y223999D01*
X221726Y222999D01*
X222999Y221726D01*
X223999Y220229D01*
X224688Y218566D01*
X225039Y216800D01*
X225039Y215905D01*
X215905Y215905D01*
G37*
%LPD*%
%LPC*%
G36*
X215000Y206761D02*
X215000Y206761D01*
X213234Y207112D01*
X211571Y207801D01*
X210074Y208801D01*
X208801Y210074D01*
X207801Y211571D01*
X207112Y213234D01*
X206761Y215000D01*
X206761Y215895D01*
X215895Y215895D01*
X215895Y206761D01*
X215000Y206761D01*
G37*
%LPD*%
D10*
X378700Y228600D03*
X408700Y228600D03*
X315200Y266700D03*
X345200Y266700D03*
D11*
X215900Y215900D03*
X215900Y190500D03*
X292100Y190500D03*
X292100Y215900D03*
X215900Y165100D03*
X215900Y139700D03*
X292100Y165100D03*
X292100Y139700D03*
D12*
X109220Y266700D02*
X93980Y266700D01*
X93980Y292100D02*
X109220Y292100D01*
D13*
X38100Y165100D03*
X63500Y165100D03*
D14*
X419100Y165100D03*
X393700Y165100D03*
D15*
X346100Y88900D03*
X365100Y88900D03*
X219100Y88900D03*
X238100Y88900D03*
X282600Y88900D03*
X301600Y88900D03*
X155600Y88900D03*
X174600Y88900D03*
D16*
X215900Y190500D02*
X292100Y190500D01*
X238100Y90400D02*
X238100Y88900D01*
X238100Y90400D02*
X254199Y106499D01*
X373430Y106499D01*
X428244Y161312D01*
X428244Y168888D01*
X422888Y174244D01*
X415312Y174244D01*
X404466Y163397D01*
X404466Y162934D01*
X397488Y155956D01*
X250444Y155956D01*
X215900Y190500D01*
X346100Y90400D02*
X346100Y88900D01*
X346100Y90400D02*
X337060Y99440D01*
X247140Y99440D01*
X238100Y90400D01*
X238100Y88900D01*
X315200Y188200D02*
X315200Y266700D01*
X315200Y188200D02*
X292100Y165100D01*
X370097Y116097D02*
X419100Y165100D01*
X370097Y116097D02*
X181297Y116097D01*
X155600Y90400D01*
X155600Y88900D01*
X213708Y165100D02*
X215900Y165100D01*
X213708Y165100D02*
X146560Y97952D01*
X146560Y79848D01*
X148048Y78360D01*
X165560Y78360D01*
X174600Y87400D01*
X174600Y88900D01*
X282600Y88900D02*
X282600Y87400D01*
X273560Y78360D01*
X148048Y78360D01*
X146560Y79848D01*
X146560Y97952D01*
X213708Y165100D01*
X215900Y165100D01*
X88900Y139700D02*
X63500Y165100D01*
X88900Y139700D02*
X88900Y38100D01*
X101600Y25400D01*
X279400Y25400D02*
X304800Y50800D01*
X304800Y85700D01*
X301600Y88900D01*
X279400Y25400D02*
X101600Y25400D01*
X38100Y203200D02*
X101600Y266700D01*
X38100Y203200D02*
X38100Y165100D01*
X408700Y226100D02*
X408700Y228600D01*
X408700Y226100D02*
X393700Y211100D01*
X393700Y165100D01*
X215900Y215900D02*
X139700Y292100D01*
X101600Y292100D01*
X215900Y254000D02*
X215900Y215900D01*
X215900Y254000D02*
X254000Y292100D01*
X319800Y292100D02*
X345200Y266700D01*
X319800Y292100D02*
X254000Y292100D01*
X408700Y231100D02*
X408700Y228600D01*
X408700Y231100D02*
X373100Y266700D01*
X345200Y266700D01*
M02*
