G04 EAGLE Gerber RS-274X export*
G75*
%MOMM*%
%FSLAX34Y34*%
%LPD*%
%INSilkscreen Top*%
%IPPOS*%
%AMOC8*
5,1,8,0,0,1.08239X$1,22.5*%
G01*
%ADD10C,0.076200*%
%ADD11C,0.152400*%
%ADD12C,0.127000*%
%ADD13C,0.203200*%
%ADD14C,0.254000*%
%ADD15C,0.101600*%


D10*
X382258Y239981D02*
X380169Y239981D01*
X380080Y239983D01*
X379992Y239989D01*
X379904Y239998D01*
X379816Y240011D01*
X379729Y240028D01*
X379643Y240048D01*
X379558Y240073D01*
X379473Y240100D01*
X379390Y240132D01*
X379309Y240166D01*
X379229Y240205D01*
X379151Y240246D01*
X379074Y240291D01*
X379000Y240339D01*
X378927Y240390D01*
X378857Y240444D01*
X378790Y240502D01*
X378724Y240562D01*
X378662Y240624D01*
X378602Y240690D01*
X378544Y240757D01*
X378490Y240827D01*
X378439Y240900D01*
X378391Y240974D01*
X378346Y241051D01*
X378305Y241129D01*
X378266Y241209D01*
X378232Y241290D01*
X378200Y241373D01*
X378173Y241458D01*
X378148Y241543D01*
X378128Y241629D01*
X378111Y241716D01*
X378098Y241804D01*
X378089Y241892D01*
X378083Y241980D01*
X378081Y242069D01*
X378081Y247291D01*
X378083Y247382D01*
X378089Y247473D01*
X378099Y247564D01*
X378113Y247654D01*
X378130Y247743D01*
X378152Y247831D01*
X378178Y247919D01*
X378207Y248005D01*
X378240Y248090D01*
X378277Y248173D01*
X378317Y248255D01*
X378361Y248335D01*
X378408Y248413D01*
X378459Y248489D01*
X378512Y248562D01*
X378569Y248633D01*
X378630Y248702D01*
X378693Y248767D01*
X378758Y248830D01*
X378827Y248890D01*
X378898Y248948D01*
X378971Y249001D01*
X379047Y249052D01*
X379125Y249099D01*
X379205Y249143D01*
X379287Y249183D01*
X379370Y249220D01*
X379455Y249253D01*
X379541Y249282D01*
X379629Y249308D01*
X379717Y249330D01*
X379806Y249347D01*
X379896Y249361D01*
X379987Y249371D01*
X380078Y249377D01*
X380169Y249379D01*
X382258Y249379D01*
X385727Y247291D02*
X388337Y249379D01*
X388337Y239981D01*
X385727Y239981D02*
X390948Y239981D01*
X318758Y278081D02*
X316669Y278081D01*
X316580Y278083D01*
X316492Y278089D01*
X316404Y278098D01*
X316316Y278111D01*
X316229Y278128D01*
X316143Y278148D01*
X316058Y278173D01*
X315973Y278200D01*
X315890Y278232D01*
X315809Y278266D01*
X315729Y278305D01*
X315651Y278346D01*
X315574Y278391D01*
X315500Y278439D01*
X315427Y278490D01*
X315357Y278544D01*
X315290Y278602D01*
X315224Y278662D01*
X315162Y278724D01*
X315102Y278790D01*
X315044Y278857D01*
X314990Y278927D01*
X314939Y279000D01*
X314891Y279074D01*
X314846Y279151D01*
X314805Y279229D01*
X314766Y279309D01*
X314732Y279390D01*
X314700Y279473D01*
X314673Y279558D01*
X314648Y279643D01*
X314628Y279729D01*
X314611Y279816D01*
X314598Y279904D01*
X314589Y279992D01*
X314583Y280080D01*
X314581Y280169D01*
X314581Y285391D01*
X314583Y285482D01*
X314589Y285573D01*
X314599Y285664D01*
X314613Y285754D01*
X314630Y285843D01*
X314652Y285931D01*
X314678Y286019D01*
X314707Y286105D01*
X314740Y286190D01*
X314777Y286273D01*
X314817Y286355D01*
X314861Y286435D01*
X314908Y286513D01*
X314959Y286589D01*
X315012Y286662D01*
X315069Y286733D01*
X315130Y286802D01*
X315193Y286867D01*
X315258Y286930D01*
X315327Y286990D01*
X315398Y287048D01*
X315471Y287101D01*
X315547Y287152D01*
X315625Y287199D01*
X315705Y287243D01*
X315787Y287283D01*
X315870Y287320D01*
X315955Y287353D01*
X316041Y287382D01*
X316129Y287408D01*
X316217Y287430D01*
X316306Y287447D01*
X316396Y287461D01*
X316487Y287471D01*
X316578Y287477D01*
X316669Y287479D01*
X318758Y287479D01*
X325098Y287480D02*
X325193Y287478D01*
X325287Y287472D01*
X325381Y287463D01*
X325475Y287450D01*
X325568Y287433D01*
X325660Y287412D01*
X325752Y287387D01*
X325842Y287359D01*
X325931Y287327D01*
X326019Y287292D01*
X326105Y287253D01*
X326190Y287211D01*
X326273Y287165D01*
X326354Y287116D01*
X326433Y287064D01*
X326510Y287009D01*
X326584Y286950D01*
X326656Y286889D01*
X326726Y286825D01*
X326793Y286758D01*
X326857Y286688D01*
X326918Y286616D01*
X326977Y286542D01*
X327032Y286465D01*
X327084Y286386D01*
X327133Y286305D01*
X327179Y286222D01*
X327221Y286137D01*
X327260Y286051D01*
X327295Y285963D01*
X327327Y285874D01*
X327355Y285784D01*
X327380Y285692D01*
X327401Y285600D01*
X327418Y285507D01*
X327431Y285413D01*
X327440Y285319D01*
X327446Y285225D01*
X327448Y285130D01*
X325098Y287479D02*
X324990Y287477D01*
X324881Y287471D01*
X324773Y287461D01*
X324666Y287448D01*
X324559Y287430D01*
X324452Y287409D01*
X324347Y287384D01*
X324242Y287355D01*
X324139Y287323D01*
X324037Y287286D01*
X323936Y287246D01*
X323837Y287203D01*
X323739Y287156D01*
X323643Y287105D01*
X323549Y287051D01*
X323457Y286994D01*
X323367Y286933D01*
X323279Y286869D01*
X323194Y286803D01*
X323111Y286733D01*
X323031Y286660D01*
X322953Y286584D01*
X322878Y286506D01*
X322806Y286425D01*
X322737Y286341D01*
X322671Y286255D01*
X322608Y286167D01*
X322549Y286076D01*
X322492Y285984D01*
X322439Y285889D01*
X322390Y285793D01*
X322344Y285694D01*
X322301Y285595D01*
X322262Y285493D01*
X322227Y285391D01*
X326665Y283302D02*
X326734Y283371D01*
X326800Y283442D01*
X326864Y283515D01*
X326925Y283591D01*
X326983Y283670D01*
X327037Y283750D01*
X327089Y283833D01*
X327137Y283917D01*
X327183Y284003D01*
X327224Y284091D01*
X327263Y284181D01*
X327298Y284272D01*
X327329Y284364D01*
X327357Y284457D01*
X327381Y284551D01*
X327401Y284646D01*
X327418Y284742D01*
X327431Y284839D01*
X327440Y284936D01*
X327446Y285033D01*
X327448Y285130D01*
X326665Y283302D02*
X322227Y278081D01*
X327448Y278081D01*
D11*
X283210Y228600D02*
X283210Y127000D01*
X224790Y127000D02*
X224790Y228600D01*
X224790Y127000D02*
X283210Y127000D01*
X283210Y228600D02*
X264160Y228600D01*
X243840Y228600D02*
X224790Y228600D01*
X243840Y228600D02*
X243843Y228353D01*
X243852Y228105D01*
X243867Y227858D01*
X243888Y227612D01*
X243915Y227366D01*
X243948Y227121D01*
X243987Y226876D01*
X244032Y226633D01*
X244083Y226391D01*
X244140Y226150D01*
X244202Y225911D01*
X244271Y225673D01*
X244345Y225437D01*
X244425Y225203D01*
X244510Y224971D01*
X244602Y224741D01*
X244698Y224513D01*
X244801Y224288D01*
X244908Y224065D01*
X245022Y223845D01*
X245140Y223628D01*
X245264Y223413D01*
X245393Y223202D01*
X245527Y222994D01*
X245666Y222789D01*
X245810Y222588D01*
X245958Y222390D01*
X246112Y222196D01*
X246270Y222006D01*
X246433Y221820D01*
X246600Y221638D01*
X246772Y221460D01*
X246948Y221286D01*
X247128Y221116D01*
X247313Y220951D01*
X247501Y220791D01*
X247693Y220635D01*
X247889Y220483D01*
X248088Y220337D01*
X248291Y220195D01*
X248498Y220059D01*
X248707Y219927D01*
X248920Y219801D01*
X249136Y219680D01*
X249354Y219564D01*
X249576Y219454D01*
X249800Y219349D01*
X250026Y219249D01*
X250255Y219155D01*
X250486Y219067D01*
X250720Y218984D01*
X250955Y218907D01*
X251192Y218836D01*
X251430Y218770D01*
X251670Y218711D01*
X251912Y218657D01*
X252155Y218609D01*
X252398Y218567D01*
X252643Y218531D01*
X252889Y218501D01*
X253135Y218477D01*
X253382Y218459D01*
X253629Y218447D01*
X253876Y218441D01*
X254124Y218441D01*
X254371Y218447D01*
X254618Y218459D01*
X254865Y218477D01*
X255111Y218501D01*
X255357Y218531D01*
X255602Y218567D01*
X255845Y218609D01*
X256088Y218657D01*
X256330Y218711D01*
X256570Y218770D01*
X256808Y218836D01*
X257045Y218907D01*
X257280Y218984D01*
X257514Y219067D01*
X257745Y219155D01*
X257974Y219249D01*
X258200Y219349D01*
X258424Y219454D01*
X258646Y219564D01*
X258864Y219680D01*
X259080Y219801D01*
X259293Y219927D01*
X259502Y220059D01*
X259709Y220195D01*
X259912Y220337D01*
X260111Y220483D01*
X260307Y220635D01*
X260499Y220791D01*
X260687Y220951D01*
X260872Y221116D01*
X261052Y221286D01*
X261228Y221460D01*
X261400Y221638D01*
X261567Y221820D01*
X261730Y222006D01*
X261888Y222196D01*
X262042Y222390D01*
X262190Y222588D01*
X262334Y222789D01*
X262473Y222994D01*
X262607Y223202D01*
X262736Y223413D01*
X262860Y223628D01*
X262978Y223845D01*
X263092Y224065D01*
X263199Y224288D01*
X263302Y224513D01*
X263398Y224741D01*
X263490Y224971D01*
X263575Y225203D01*
X263655Y225437D01*
X263729Y225673D01*
X263798Y225911D01*
X263860Y226150D01*
X263917Y226391D01*
X263968Y226633D01*
X264013Y226876D01*
X264052Y227121D01*
X264085Y227366D01*
X264112Y227612D01*
X264133Y227858D01*
X264148Y228105D01*
X264157Y228353D01*
X264160Y228600D01*
D12*
X226695Y231775D02*
X226695Y243205D01*
X225425Y231775D02*
X227965Y231775D01*
X227965Y243205D02*
X225425Y243205D01*
X235167Y231775D02*
X237707Y231775D01*
X235167Y231775D02*
X235067Y231777D01*
X234968Y231783D01*
X234868Y231793D01*
X234770Y231806D01*
X234671Y231824D01*
X234574Y231845D01*
X234478Y231870D01*
X234382Y231899D01*
X234288Y231932D01*
X234195Y231968D01*
X234104Y232008D01*
X234014Y232052D01*
X233926Y232099D01*
X233840Y232149D01*
X233756Y232203D01*
X233674Y232260D01*
X233595Y232320D01*
X233517Y232384D01*
X233443Y232450D01*
X233371Y232519D01*
X233302Y232591D01*
X233236Y232665D01*
X233172Y232743D01*
X233112Y232822D01*
X233055Y232904D01*
X233001Y232988D01*
X232951Y233074D01*
X232904Y233162D01*
X232860Y233252D01*
X232820Y233343D01*
X232784Y233436D01*
X232751Y233530D01*
X232722Y233626D01*
X232697Y233722D01*
X232676Y233819D01*
X232658Y233918D01*
X232645Y234016D01*
X232635Y234116D01*
X232629Y234215D01*
X232627Y234315D01*
X232627Y240665D01*
X232629Y240765D01*
X232635Y240864D01*
X232645Y240964D01*
X232658Y241062D01*
X232676Y241161D01*
X232697Y241258D01*
X232722Y241354D01*
X232751Y241450D01*
X232784Y241544D01*
X232820Y241637D01*
X232860Y241728D01*
X232904Y241818D01*
X232951Y241906D01*
X233001Y241992D01*
X233055Y242076D01*
X233112Y242158D01*
X233172Y242237D01*
X233236Y242315D01*
X233302Y242389D01*
X233371Y242461D01*
X233443Y242530D01*
X233517Y242596D01*
X233595Y242660D01*
X233674Y242720D01*
X233756Y242777D01*
X233840Y242831D01*
X233926Y242881D01*
X234014Y242928D01*
X234104Y242972D01*
X234195Y243012D01*
X234288Y243048D01*
X234382Y243081D01*
X234478Y243110D01*
X234574Y243135D01*
X234671Y243156D01*
X234770Y243174D01*
X234868Y243187D01*
X234968Y243197D01*
X235067Y243203D01*
X235167Y243205D01*
X237707Y243205D01*
X242189Y240665D02*
X245364Y243205D01*
X245364Y231775D01*
X242189Y231775D02*
X248539Y231775D01*
D11*
X88900Y260350D02*
X88900Y273050D01*
X95250Y279400D01*
X107950Y279400D01*
X114300Y273050D01*
X107950Y254000D02*
X95250Y254000D01*
X88900Y260350D01*
X107950Y254000D02*
X114300Y260350D01*
X114300Y273050D01*
X95250Y279400D02*
X88900Y285750D01*
X88900Y298450D01*
X95250Y304800D01*
X107950Y304800D01*
X114300Y298450D01*
X114300Y285750D01*
X107950Y279400D01*
D12*
X80137Y257683D02*
X71247Y257683D01*
X80137Y257683D02*
X80237Y257681D01*
X80336Y257675D01*
X80436Y257665D01*
X80534Y257652D01*
X80633Y257634D01*
X80730Y257613D01*
X80826Y257588D01*
X80922Y257559D01*
X81016Y257526D01*
X81109Y257490D01*
X81200Y257450D01*
X81290Y257406D01*
X81378Y257359D01*
X81464Y257309D01*
X81548Y257255D01*
X81630Y257198D01*
X81709Y257138D01*
X81787Y257074D01*
X81861Y257008D01*
X81933Y256939D01*
X82002Y256867D01*
X82068Y256793D01*
X82132Y256715D01*
X82192Y256636D01*
X82249Y256554D01*
X82303Y256470D01*
X82353Y256384D01*
X82400Y256296D01*
X82444Y256206D01*
X82484Y256115D01*
X82520Y256022D01*
X82553Y255928D01*
X82582Y255832D01*
X82607Y255736D01*
X82628Y255639D01*
X82646Y255540D01*
X82659Y255442D01*
X82669Y255342D01*
X82675Y255243D01*
X82677Y255143D01*
X82677Y253873D01*
X82677Y263663D02*
X71247Y263663D01*
X71247Y266838D01*
X71249Y266949D01*
X71255Y267059D01*
X71264Y267170D01*
X71278Y267280D01*
X71295Y267389D01*
X71316Y267498D01*
X71341Y267606D01*
X71370Y267713D01*
X71402Y267819D01*
X71438Y267924D01*
X71478Y268027D01*
X71521Y268129D01*
X71568Y268230D01*
X71619Y268329D01*
X71672Y268426D01*
X71729Y268520D01*
X71790Y268613D01*
X71853Y268704D01*
X71920Y268793D01*
X71990Y268879D01*
X72063Y268962D01*
X72138Y269044D01*
X72216Y269122D01*
X72298Y269197D01*
X72381Y269270D01*
X72467Y269340D01*
X72556Y269407D01*
X72647Y269470D01*
X72740Y269531D01*
X72835Y269588D01*
X72931Y269641D01*
X73030Y269692D01*
X73131Y269739D01*
X73233Y269782D01*
X73336Y269822D01*
X73441Y269858D01*
X73547Y269890D01*
X73654Y269919D01*
X73762Y269944D01*
X73871Y269965D01*
X73980Y269982D01*
X74090Y269996D01*
X74201Y270005D01*
X74311Y270011D01*
X74422Y270013D01*
X74533Y270011D01*
X74643Y270005D01*
X74754Y269996D01*
X74864Y269982D01*
X74973Y269965D01*
X75082Y269944D01*
X75190Y269919D01*
X75297Y269890D01*
X75403Y269858D01*
X75508Y269822D01*
X75611Y269782D01*
X75713Y269739D01*
X75814Y269692D01*
X75913Y269641D01*
X76010Y269588D01*
X76104Y269531D01*
X76197Y269470D01*
X76288Y269407D01*
X76377Y269340D01*
X76463Y269270D01*
X76546Y269197D01*
X76628Y269122D01*
X76706Y269044D01*
X76781Y268962D01*
X76854Y268879D01*
X76924Y268793D01*
X76991Y268704D01*
X77054Y268613D01*
X77115Y268520D01*
X77172Y268426D01*
X77225Y268329D01*
X77276Y268230D01*
X77323Y268129D01*
X77366Y268027D01*
X77406Y267924D01*
X77442Y267819D01*
X77474Y267713D01*
X77503Y267606D01*
X77528Y267498D01*
X77549Y267389D01*
X77566Y267280D01*
X77580Y267170D01*
X77589Y267059D01*
X77595Y266949D01*
X77597Y266838D01*
X77597Y263663D01*
X73787Y274522D02*
X71247Y277697D01*
X82677Y277697D01*
X82677Y274522D02*
X82677Y280872D01*
D13*
X76200Y184150D02*
X76200Y146050D01*
D14*
X75726Y145434D01*
X75237Y144829D01*
X74733Y144237D01*
X74215Y143657D01*
X73683Y143090D01*
X73137Y142536D01*
X72578Y141996D01*
X72005Y141470D01*
X71420Y140957D01*
X70823Y140460D01*
X70214Y139977D01*
X69593Y139509D01*
X68960Y139056D01*
X68317Y138619D01*
X67663Y138198D01*
X66999Y137794D01*
X66326Y137405D01*
X65643Y137033D01*
X64951Y136678D01*
X64251Y136340D01*
X63543Y136019D01*
X62827Y135716D01*
X62103Y135430D01*
X61374Y135162D01*
X60637Y134912D01*
X59895Y134681D01*
X59147Y134467D01*
X58395Y134272D01*
X57637Y134095D01*
X56876Y133937D01*
X56111Y133797D01*
X55343Y133677D01*
X54572Y133575D01*
X53799Y133492D01*
X53024Y133428D01*
X52248Y133383D01*
X51471Y133357D01*
X50693Y133350D01*
X49916Y133362D01*
X49139Y133393D01*
X48363Y133444D01*
X47588Y133513D01*
X46816Y133601D01*
X46046Y133708D01*
X45278Y133834D01*
X44514Y133978D01*
X43754Y134142D01*
X42998Y134324D01*
X42247Y134524D01*
X41500Y134742D01*
X40760Y134979D01*
X40025Y135234D01*
X39297Y135507D01*
X38576Y135798D01*
X37862Y136106D01*
X37156Y136431D01*
X36458Y136774D01*
X35768Y137134D01*
X35088Y137510D01*
X34417Y137903D01*
X33756Y138313D01*
X33105Y138738D01*
X32465Y139179D01*
X31836Y139636D01*
X31218Y140108D01*
X30612Y140595D01*
X30018Y141097D01*
X29436Y141613D01*
X28867Y142143D01*
X28312Y142687D01*
X27769Y143245D01*
X27241Y143815D01*
X26727Y144398D01*
X26227Y144994D01*
X25742Y145602D01*
X25272Y146221D01*
X24818Y146852D01*
X24379Y147494D01*
X23955Y148146D01*
X23548Y148809D01*
X23157Y149481D01*
X22783Y150163D01*
X22426Y150853D01*
X22086Y151552D01*
X21762Y152260D01*
X21457Y152974D01*
X21168Y153697D01*
X20898Y154426D01*
X20646Y155161D01*
X20411Y155903D01*
X20195Y156650D01*
X19997Y157402D01*
X19818Y158158D01*
X19657Y158919D01*
X19515Y159683D01*
X19392Y160451D01*
X19288Y161222D01*
X19202Y161995D01*
X19136Y162769D01*
X19088Y163545D01*
X19060Y164322D01*
X19050Y165100D01*
X19060Y165878D01*
X19088Y166655D01*
X19136Y167431D01*
X19202Y168205D01*
X19288Y168978D01*
X19392Y169749D01*
X19515Y170517D01*
X19657Y171281D01*
X19818Y172042D01*
X19997Y172798D01*
X20195Y173550D01*
X20411Y174297D01*
X20646Y175039D01*
X20898Y175774D01*
X21168Y176503D01*
X21457Y177226D01*
X21762Y177940D01*
X22086Y178648D01*
X22426Y179347D01*
X22783Y180037D01*
X23157Y180719D01*
X23548Y181391D01*
X23955Y182054D01*
X24379Y182706D01*
X24818Y183348D01*
X25272Y183979D01*
X25742Y184598D01*
X26227Y185206D01*
X26727Y185802D01*
X27241Y186385D01*
X27769Y186955D01*
X28312Y187513D01*
X28867Y188057D01*
X29436Y188587D01*
X30018Y189103D01*
X30612Y189605D01*
X31218Y190092D01*
X31836Y190564D01*
X32465Y191021D01*
X33105Y191462D01*
X33756Y191887D01*
X34417Y192297D01*
X35088Y192690D01*
X35768Y193066D01*
X36458Y193426D01*
X37156Y193769D01*
X37862Y194094D01*
X38576Y194402D01*
X39297Y194693D01*
X40025Y194966D01*
X40760Y195221D01*
X41500Y195458D01*
X42247Y195676D01*
X42998Y195876D01*
X43754Y196058D01*
X44514Y196222D01*
X45278Y196366D01*
X46046Y196492D01*
X46816Y196599D01*
X47588Y196687D01*
X48363Y196756D01*
X49139Y196807D01*
X49916Y196838D01*
X50693Y196850D01*
X51471Y196843D01*
X52248Y196817D01*
X53024Y196772D01*
X53799Y196708D01*
X54572Y196625D01*
X55343Y196523D01*
X56111Y196403D01*
X56876Y196263D01*
X57637Y196105D01*
X58395Y195928D01*
X59147Y195733D01*
X59895Y195519D01*
X60637Y195288D01*
X61374Y195038D01*
X62103Y194770D01*
X62827Y194484D01*
X63543Y194181D01*
X64251Y193860D01*
X64951Y193522D01*
X65643Y193167D01*
X66326Y192795D01*
X66999Y192406D01*
X67663Y192002D01*
X68317Y191581D01*
X68960Y191144D01*
X69593Y190691D01*
X70214Y190223D01*
X70823Y189740D01*
X71420Y189243D01*
X72005Y188730D01*
X72578Y188204D01*
X73137Y187664D01*
X73683Y187110D01*
X74215Y186543D01*
X74733Y185963D01*
X75237Y185371D01*
X75726Y184766D01*
X76200Y184150D01*
D11*
X25400Y165100D02*
X25408Y165723D01*
X25431Y166346D01*
X25469Y166969D01*
X25522Y167590D01*
X25591Y168209D01*
X25675Y168827D01*
X25774Y169442D01*
X25888Y170055D01*
X26017Y170665D01*
X26161Y171272D01*
X26320Y171875D01*
X26494Y172473D01*
X26682Y173068D01*
X26885Y173657D01*
X27102Y174241D01*
X27333Y174820D01*
X27579Y175393D01*
X27839Y175960D01*
X28112Y176520D01*
X28399Y177073D01*
X28700Y177620D01*
X29014Y178158D01*
X29341Y178689D01*
X29681Y179211D01*
X30033Y179726D01*
X30399Y180231D01*
X30776Y180727D01*
X31166Y181214D01*
X31567Y181691D01*
X31980Y182158D01*
X32404Y182614D01*
X32839Y183061D01*
X33286Y183496D01*
X33742Y183920D01*
X34209Y184333D01*
X34686Y184734D01*
X35173Y185124D01*
X35669Y185501D01*
X36174Y185867D01*
X36689Y186219D01*
X37211Y186559D01*
X37742Y186886D01*
X38280Y187200D01*
X38827Y187501D01*
X39380Y187788D01*
X39940Y188061D01*
X40507Y188321D01*
X41080Y188567D01*
X41659Y188798D01*
X42243Y189015D01*
X42832Y189218D01*
X43427Y189406D01*
X44025Y189580D01*
X44628Y189739D01*
X45235Y189883D01*
X45845Y190012D01*
X46458Y190126D01*
X47073Y190225D01*
X47691Y190309D01*
X48310Y190378D01*
X48931Y190431D01*
X49554Y190469D01*
X50177Y190492D01*
X50800Y190500D01*
X51423Y190492D01*
X52046Y190469D01*
X52669Y190431D01*
X53290Y190378D01*
X53909Y190309D01*
X54527Y190225D01*
X55142Y190126D01*
X55755Y190012D01*
X56365Y189883D01*
X56972Y189739D01*
X57575Y189580D01*
X58173Y189406D01*
X58768Y189218D01*
X59357Y189015D01*
X59941Y188798D01*
X60520Y188567D01*
X61093Y188321D01*
X61660Y188061D01*
X62220Y187788D01*
X62773Y187501D01*
X63320Y187200D01*
X63858Y186886D01*
X64389Y186559D01*
X64911Y186219D01*
X65426Y185867D01*
X65931Y185501D01*
X66427Y185124D01*
X66914Y184734D01*
X67391Y184333D01*
X67858Y183920D01*
X68314Y183496D01*
X68761Y183061D01*
X69196Y182614D01*
X69620Y182158D01*
X70033Y181691D01*
X70434Y181214D01*
X70824Y180727D01*
X71201Y180231D01*
X71567Y179726D01*
X71919Y179211D01*
X72259Y178689D01*
X72586Y178158D01*
X72900Y177620D01*
X73201Y177073D01*
X73488Y176520D01*
X73761Y175960D01*
X74021Y175393D01*
X74267Y174820D01*
X74498Y174241D01*
X74715Y173657D01*
X74918Y173068D01*
X75106Y172473D01*
X75280Y171875D01*
X75439Y171272D01*
X75583Y170665D01*
X75712Y170055D01*
X75826Y169442D01*
X75925Y168827D01*
X76009Y168209D01*
X76078Y167590D01*
X76131Y166969D01*
X76169Y166346D01*
X76192Y165723D01*
X76200Y165100D01*
X76192Y164477D01*
X76169Y163854D01*
X76131Y163231D01*
X76078Y162610D01*
X76009Y161991D01*
X75925Y161373D01*
X75826Y160758D01*
X75712Y160145D01*
X75583Y159535D01*
X75439Y158928D01*
X75280Y158325D01*
X75106Y157727D01*
X74918Y157132D01*
X74715Y156543D01*
X74498Y155959D01*
X74267Y155380D01*
X74021Y154807D01*
X73761Y154240D01*
X73488Y153680D01*
X73201Y153127D01*
X72900Y152580D01*
X72586Y152042D01*
X72259Y151511D01*
X71919Y150989D01*
X71567Y150474D01*
X71201Y149969D01*
X70824Y149473D01*
X70434Y148986D01*
X70033Y148509D01*
X69620Y148042D01*
X69196Y147586D01*
X68761Y147139D01*
X68314Y146704D01*
X67858Y146280D01*
X67391Y145867D01*
X66914Y145466D01*
X66427Y145076D01*
X65931Y144699D01*
X65426Y144333D01*
X64911Y143981D01*
X64389Y143641D01*
X63858Y143314D01*
X63320Y143000D01*
X62773Y142699D01*
X62220Y142412D01*
X61660Y142139D01*
X61093Y141879D01*
X60520Y141633D01*
X59941Y141402D01*
X59357Y141185D01*
X58768Y140982D01*
X58173Y140794D01*
X57575Y140620D01*
X56972Y140461D01*
X56365Y140317D01*
X55755Y140188D01*
X55142Y140074D01*
X54527Y139975D01*
X53909Y139891D01*
X53290Y139822D01*
X52669Y139769D01*
X52046Y139731D01*
X51423Y139708D01*
X50800Y139700D01*
X50177Y139708D01*
X49554Y139731D01*
X48931Y139769D01*
X48310Y139822D01*
X47691Y139891D01*
X47073Y139975D01*
X46458Y140074D01*
X45845Y140188D01*
X45235Y140317D01*
X44628Y140461D01*
X44025Y140620D01*
X43427Y140794D01*
X42832Y140982D01*
X42243Y141185D01*
X41659Y141402D01*
X41080Y141633D01*
X40507Y141879D01*
X39940Y142139D01*
X39380Y142412D01*
X38827Y142699D01*
X38280Y143000D01*
X37742Y143314D01*
X37211Y143641D01*
X36689Y143981D01*
X36174Y144333D01*
X35669Y144699D01*
X35173Y145076D01*
X34686Y145466D01*
X34209Y145867D01*
X33742Y146280D01*
X33286Y146704D01*
X32839Y147139D01*
X32404Y147586D01*
X31980Y148042D01*
X31567Y148509D01*
X31166Y148986D01*
X30776Y149473D01*
X30399Y149969D01*
X30033Y150474D01*
X29681Y150989D01*
X29341Y151511D01*
X29014Y152042D01*
X28700Y152580D01*
X28399Y153127D01*
X28112Y153680D01*
X27839Y154240D01*
X27579Y154807D01*
X27333Y155380D01*
X27102Y155959D01*
X26885Y156543D01*
X26682Y157132D01*
X26494Y157727D01*
X26320Y158325D01*
X26161Y158928D01*
X26017Y159535D01*
X25888Y160145D01*
X25774Y160758D01*
X25675Y161373D01*
X25591Y161991D01*
X25522Y162610D01*
X25469Y163231D01*
X25431Y163854D01*
X25408Y164477D01*
X25400Y165100D01*
D12*
X83185Y171069D02*
X83185Y182499D01*
X83185Y171069D02*
X88265Y171069D01*
X93091Y171069D02*
X98171Y171069D01*
X93091Y171069D02*
X93091Y182499D01*
X98171Y182499D01*
X96901Y177419D02*
X93091Y177419D01*
X102972Y182499D02*
X102972Y171069D01*
X102972Y182499D02*
X106147Y182499D01*
X106258Y182497D01*
X106368Y182491D01*
X106479Y182482D01*
X106589Y182468D01*
X106698Y182451D01*
X106807Y182430D01*
X106915Y182405D01*
X107022Y182376D01*
X107128Y182344D01*
X107233Y182308D01*
X107336Y182268D01*
X107438Y182225D01*
X107539Y182178D01*
X107638Y182127D01*
X107735Y182074D01*
X107829Y182017D01*
X107922Y181956D01*
X108013Y181893D01*
X108102Y181826D01*
X108188Y181756D01*
X108271Y181683D01*
X108353Y181608D01*
X108431Y181530D01*
X108506Y181448D01*
X108579Y181365D01*
X108649Y181279D01*
X108716Y181190D01*
X108779Y181099D01*
X108840Y181006D01*
X108897Y180912D01*
X108950Y180815D01*
X109001Y180716D01*
X109048Y180615D01*
X109091Y180513D01*
X109131Y180410D01*
X109167Y180305D01*
X109199Y180199D01*
X109228Y180092D01*
X109253Y179984D01*
X109274Y179875D01*
X109291Y179766D01*
X109305Y179656D01*
X109314Y179545D01*
X109320Y179435D01*
X109322Y179324D01*
X109322Y174244D01*
X109320Y174133D01*
X109314Y174023D01*
X109305Y173912D01*
X109291Y173802D01*
X109274Y173693D01*
X109253Y173584D01*
X109228Y173476D01*
X109199Y173369D01*
X109167Y173263D01*
X109131Y173158D01*
X109091Y173055D01*
X109048Y172953D01*
X109001Y172852D01*
X108950Y172753D01*
X108897Y172656D01*
X108840Y172562D01*
X108779Y172469D01*
X108716Y172378D01*
X108649Y172289D01*
X108579Y172203D01*
X108506Y172120D01*
X108431Y172038D01*
X108353Y171960D01*
X108271Y171885D01*
X108188Y171812D01*
X108102Y171742D01*
X108013Y171675D01*
X107922Y171612D01*
X107829Y171551D01*
X107734Y171494D01*
X107638Y171441D01*
X107539Y171390D01*
X107438Y171343D01*
X107336Y171300D01*
X107233Y171260D01*
X107128Y171224D01*
X107022Y171192D01*
X106915Y171163D01*
X106807Y171138D01*
X106698Y171117D01*
X106589Y171100D01*
X106479Y171086D01*
X106368Y171077D01*
X106258Y171071D01*
X106147Y171069D01*
X102972Y171069D01*
X114783Y179959D02*
X117958Y182499D01*
X117958Y171069D01*
X114783Y171069D02*
X121133Y171069D01*
D13*
X381000Y184150D02*
X381000Y146050D01*
D14*
X381474Y145434D01*
X381963Y144829D01*
X382467Y144237D01*
X382985Y143657D01*
X383517Y143090D01*
X384063Y142536D01*
X384622Y141996D01*
X385195Y141470D01*
X385780Y140957D01*
X386377Y140460D01*
X386986Y139977D01*
X387607Y139509D01*
X388240Y139056D01*
X388883Y138619D01*
X389537Y138198D01*
X390201Y137794D01*
X390874Y137405D01*
X391557Y137033D01*
X392249Y136678D01*
X392949Y136340D01*
X393657Y136019D01*
X394373Y135716D01*
X395097Y135430D01*
X395826Y135162D01*
X396563Y134912D01*
X397305Y134681D01*
X398053Y134467D01*
X398805Y134272D01*
X399563Y134095D01*
X400324Y133937D01*
X401089Y133797D01*
X401857Y133677D01*
X402628Y133575D01*
X403401Y133492D01*
X404176Y133428D01*
X404952Y133383D01*
X405729Y133357D01*
X406507Y133350D01*
X407284Y133362D01*
X408061Y133393D01*
X408837Y133444D01*
X409612Y133513D01*
X410384Y133601D01*
X411154Y133708D01*
X411922Y133834D01*
X412686Y133978D01*
X413446Y134142D01*
X414202Y134324D01*
X414953Y134524D01*
X415700Y134742D01*
X416440Y134979D01*
X417175Y135234D01*
X417903Y135507D01*
X418624Y135798D01*
X419338Y136106D01*
X420044Y136431D01*
X420742Y136774D01*
X421432Y137134D01*
X422112Y137510D01*
X422783Y137903D01*
X423444Y138313D01*
X424095Y138738D01*
X424735Y139179D01*
X425364Y139636D01*
X425982Y140108D01*
X426588Y140595D01*
X427182Y141097D01*
X427764Y141613D01*
X428333Y142143D01*
X428888Y142687D01*
X429431Y143245D01*
X429959Y143815D01*
X430473Y144398D01*
X430973Y144994D01*
X431458Y145602D01*
X431928Y146221D01*
X432382Y146852D01*
X432821Y147494D01*
X433245Y148146D01*
X433652Y148809D01*
X434043Y149481D01*
X434417Y150163D01*
X434774Y150853D01*
X435114Y151552D01*
X435438Y152260D01*
X435743Y152974D01*
X436032Y153697D01*
X436302Y154426D01*
X436554Y155161D01*
X436789Y155903D01*
X437005Y156650D01*
X437203Y157402D01*
X437382Y158158D01*
X437543Y158919D01*
X437685Y159683D01*
X437808Y160451D01*
X437912Y161222D01*
X437998Y161995D01*
X438064Y162769D01*
X438112Y163545D01*
X438140Y164322D01*
X438150Y165100D01*
X438140Y165878D01*
X438112Y166655D01*
X438064Y167431D01*
X437998Y168205D01*
X437912Y168978D01*
X437808Y169749D01*
X437685Y170517D01*
X437543Y171281D01*
X437382Y172042D01*
X437203Y172798D01*
X437005Y173550D01*
X436789Y174297D01*
X436554Y175039D01*
X436302Y175774D01*
X436032Y176503D01*
X435743Y177226D01*
X435438Y177940D01*
X435114Y178648D01*
X434774Y179347D01*
X434417Y180037D01*
X434043Y180719D01*
X433652Y181391D01*
X433245Y182054D01*
X432821Y182706D01*
X432382Y183348D01*
X431928Y183979D01*
X431458Y184598D01*
X430973Y185206D01*
X430473Y185802D01*
X429959Y186385D01*
X429431Y186955D01*
X428888Y187513D01*
X428333Y188057D01*
X427764Y188587D01*
X427182Y189103D01*
X426588Y189605D01*
X425982Y190092D01*
X425364Y190564D01*
X424735Y191021D01*
X424095Y191462D01*
X423444Y191887D01*
X422783Y192297D01*
X422112Y192690D01*
X421432Y193066D01*
X420742Y193426D01*
X420044Y193769D01*
X419338Y194094D01*
X418624Y194402D01*
X417903Y194693D01*
X417175Y194966D01*
X416440Y195221D01*
X415700Y195458D01*
X414953Y195676D01*
X414202Y195876D01*
X413446Y196058D01*
X412686Y196222D01*
X411922Y196366D01*
X411154Y196492D01*
X410384Y196599D01*
X409612Y196687D01*
X408837Y196756D01*
X408061Y196807D01*
X407284Y196838D01*
X406507Y196850D01*
X405729Y196843D01*
X404952Y196817D01*
X404176Y196772D01*
X403401Y196708D01*
X402628Y196625D01*
X401857Y196523D01*
X401089Y196403D01*
X400324Y196263D01*
X399563Y196105D01*
X398805Y195928D01*
X398053Y195733D01*
X397305Y195519D01*
X396563Y195288D01*
X395826Y195038D01*
X395097Y194770D01*
X394373Y194484D01*
X393657Y194181D01*
X392949Y193860D01*
X392249Y193522D01*
X391557Y193167D01*
X390874Y192795D01*
X390201Y192406D01*
X389537Y192002D01*
X388883Y191581D01*
X388240Y191144D01*
X387607Y190691D01*
X386986Y190223D01*
X386377Y189740D01*
X385780Y189243D01*
X385195Y188730D01*
X384622Y188204D01*
X384063Y187664D01*
X383517Y187110D01*
X382985Y186543D01*
X382467Y185963D01*
X381963Y185371D01*
X381474Y184766D01*
X381000Y184150D01*
D11*
X381000Y165100D02*
X381008Y165723D01*
X381031Y166346D01*
X381069Y166969D01*
X381122Y167590D01*
X381191Y168209D01*
X381275Y168827D01*
X381374Y169442D01*
X381488Y170055D01*
X381617Y170665D01*
X381761Y171272D01*
X381920Y171875D01*
X382094Y172473D01*
X382282Y173068D01*
X382485Y173657D01*
X382702Y174241D01*
X382933Y174820D01*
X383179Y175393D01*
X383439Y175960D01*
X383712Y176520D01*
X383999Y177073D01*
X384300Y177620D01*
X384614Y178158D01*
X384941Y178689D01*
X385281Y179211D01*
X385633Y179726D01*
X385999Y180231D01*
X386376Y180727D01*
X386766Y181214D01*
X387167Y181691D01*
X387580Y182158D01*
X388004Y182614D01*
X388439Y183061D01*
X388886Y183496D01*
X389342Y183920D01*
X389809Y184333D01*
X390286Y184734D01*
X390773Y185124D01*
X391269Y185501D01*
X391774Y185867D01*
X392289Y186219D01*
X392811Y186559D01*
X393342Y186886D01*
X393880Y187200D01*
X394427Y187501D01*
X394980Y187788D01*
X395540Y188061D01*
X396107Y188321D01*
X396680Y188567D01*
X397259Y188798D01*
X397843Y189015D01*
X398432Y189218D01*
X399027Y189406D01*
X399625Y189580D01*
X400228Y189739D01*
X400835Y189883D01*
X401445Y190012D01*
X402058Y190126D01*
X402673Y190225D01*
X403291Y190309D01*
X403910Y190378D01*
X404531Y190431D01*
X405154Y190469D01*
X405777Y190492D01*
X406400Y190500D01*
X407023Y190492D01*
X407646Y190469D01*
X408269Y190431D01*
X408890Y190378D01*
X409509Y190309D01*
X410127Y190225D01*
X410742Y190126D01*
X411355Y190012D01*
X411965Y189883D01*
X412572Y189739D01*
X413175Y189580D01*
X413773Y189406D01*
X414368Y189218D01*
X414957Y189015D01*
X415541Y188798D01*
X416120Y188567D01*
X416693Y188321D01*
X417260Y188061D01*
X417820Y187788D01*
X418373Y187501D01*
X418920Y187200D01*
X419458Y186886D01*
X419989Y186559D01*
X420511Y186219D01*
X421026Y185867D01*
X421531Y185501D01*
X422027Y185124D01*
X422514Y184734D01*
X422991Y184333D01*
X423458Y183920D01*
X423914Y183496D01*
X424361Y183061D01*
X424796Y182614D01*
X425220Y182158D01*
X425633Y181691D01*
X426034Y181214D01*
X426424Y180727D01*
X426801Y180231D01*
X427167Y179726D01*
X427519Y179211D01*
X427859Y178689D01*
X428186Y178158D01*
X428500Y177620D01*
X428801Y177073D01*
X429088Y176520D01*
X429361Y175960D01*
X429621Y175393D01*
X429867Y174820D01*
X430098Y174241D01*
X430315Y173657D01*
X430518Y173068D01*
X430706Y172473D01*
X430880Y171875D01*
X431039Y171272D01*
X431183Y170665D01*
X431312Y170055D01*
X431426Y169442D01*
X431525Y168827D01*
X431609Y168209D01*
X431678Y167590D01*
X431731Y166969D01*
X431769Y166346D01*
X431792Y165723D01*
X431800Y165100D01*
X431792Y164477D01*
X431769Y163854D01*
X431731Y163231D01*
X431678Y162610D01*
X431609Y161991D01*
X431525Y161373D01*
X431426Y160758D01*
X431312Y160145D01*
X431183Y159535D01*
X431039Y158928D01*
X430880Y158325D01*
X430706Y157727D01*
X430518Y157132D01*
X430315Y156543D01*
X430098Y155959D01*
X429867Y155380D01*
X429621Y154807D01*
X429361Y154240D01*
X429088Y153680D01*
X428801Y153127D01*
X428500Y152580D01*
X428186Y152042D01*
X427859Y151511D01*
X427519Y150989D01*
X427167Y150474D01*
X426801Y149969D01*
X426424Y149473D01*
X426034Y148986D01*
X425633Y148509D01*
X425220Y148042D01*
X424796Y147586D01*
X424361Y147139D01*
X423914Y146704D01*
X423458Y146280D01*
X422991Y145867D01*
X422514Y145466D01*
X422027Y145076D01*
X421531Y144699D01*
X421026Y144333D01*
X420511Y143981D01*
X419989Y143641D01*
X419458Y143314D01*
X418920Y143000D01*
X418373Y142699D01*
X417820Y142412D01*
X417260Y142139D01*
X416693Y141879D01*
X416120Y141633D01*
X415541Y141402D01*
X414957Y141185D01*
X414368Y140982D01*
X413773Y140794D01*
X413175Y140620D01*
X412572Y140461D01*
X411965Y140317D01*
X411355Y140188D01*
X410742Y140074D01*
X410127Y139975D01*
X409509Y139891D01*
X408890Y139822D01*
X408269Y139769D01*
X407646Y139731D01*
X407023Y139708D01*
X406400Y139700D01*
X405777Y139708D01*
X405154Y139731D01*
X404531Y139769D01*
X403910Y139822D01*
X403291Y139891D01*
X402673Y139975D01*
X402058Y140074D01*
X401445Y140188D01*
X400835Y140317D01*
X400228Y140461D01*
X399625Y140620D01*
X399027Y140794D01*
X398432Y140982D01*
X397843Y141185D01*
X397259Y141402D01*
X396680Y141633D01*
X396107Y141879D01*
X395540Y142139D01*
X394980Y142412D01*
X394427Y142699D01*
X393880Y143000D01*
X393342Y143314D01*
X392811Y143641D01*
X392289Y143981D01*
X391774Y144333D01*
X391269Y144699D01*
X390773Y145076D01*
X390286Y145466D01*
X389809Y145867D01*
X389342Y146280D01*
X388886Y146704D01*
X388439Y147139D01*
X388004Y147586D01*
X387580Y148042D01*
X387167Y148509D01*
X386766Y148986D01*
X386376Y149473D01*
X385999Y149969D01*
X385633Y150474D01*
X385281Y150989D01*
X384941Y151511D01*
X384614Y152042D01*
X384300Y152580D01*
X383999Y153127D01*
X383712Y153680D01*
X383439Y154240D01*
X383179Y154807D01*
X382933Y155380D01*
X382702Y155959D01*
X382485Y156543D01*
X382282Y157132D01*
X382094Y157727D01*
X381920Y158325D01*
X381761Y158928D01*
X381617Y159535D01*
X381488Y160145D01*
X381374Y160758D01*
X381275Y161373D01*
X381191Y161991D01*
X381122Y162610D01*
X381069Y163231D01*
X381031Y163854D01*
X381008Y164477D01*
X381000Y165100D01*
D12*
X336067Y159131D02*
X336067Y147701D01*
X341147Y147701D01*
X345973Y147701D02*
X351053Y147701D01*
X345973Y147701D02*
X345973Y159131D01*
X351053Y159131D01*
X349783Y154051D02*
X345973Y154051D01*
X355854Y159131D02*
X355854Y147701D01*
X355854Y159131D02*
X359029Y159131D01*
X359140Y159129D01*
X359250Y159123D01*
X359361Y159114D01*
X359471Y159100D01*
X359580Y159083D01*
X359689Y159062D01*
X359797Y159037D01*
X359904Y159008D01*
X360010Y158976D01*
X360115Y158940D01*
X360218Y158900D01*
X360320Y158857D01*
X360421Y158810D01*
X360520Y158759D01*
X360617Y158706D01*
X360711Y158649D01*
X360804Y158588D01*
X360895Y158525D01*
X360984Y158458D01*
X361070Y158388D01*
X361153Y158315D01*
X361235Y158240D01*
X361313Y158162D01*
X361388Y158080D01*
X361461Y157997D01*
X361531Y157911D01*
X361598Y157822D01*
X361661Y157731D01*
X361722Y157638D01*
X361779Y157544D01*
X361832Y157447D01*
X361883Y157348D01*
X361930Y157247D01*
X361973Y157145D01*
X362013Y157042D01*
X362049Y156937D01*
X362081Y156831D01*
X362110Y156724D01*
X362135Y156616D01*
X362156Y156507D01*
X362173Y156398D01*
X362187Y156288D01*
X362196Y156177D01*
X362202Y156067D01*
X362204Y155956D01*
X362204Y150876D01*
X362202Y150765D01*
X362196Y150655D01*
X362187Y150544D01*
X362173Y150434D01*
X362156Y150325D01*
X362135Y150216D01*
X362110Y150108D01*
X362081Y150001D01*
X362049Y149895D01*
X362013Y149790D01*
X361973Y149687D01*
X361930Y149585D01*
X361883Y149484D01*
X361832Y149385D01*
X361779Y149288D01*
X361722Y149194D01*
X361661Y149101D01*
X361598Y149010D01*
X361531Y148921D01*
X361461Y148835D01*
X361388Y148752D01*
X361313Y148670D01*
X361235Y148592D01*
X361153Y148517D01*
X361070Y148444D01*
X360984Y148374D01*
X360895Y148307D01*
X360804Y148244D01*
X360711Y148183D01*
X360617Y148126D01*
X360520Y148073D01*
X360421Y148022D01*
X360320Y147975D01*
X360218Y147932D01*
X360115Y147892D01*
X360010Y147856D01*
X359904Y147824D01*
X359797Y147795D01*
X359689Y147770D01*
X359580Y147749D01*
X359471Y147732D01*
X359361Y147718D01*
X359250Y147709D01*
X359140Y147703D01*
X359029Y147701D01*
X355854Y147701D01*
X371158Y159132D02*
X371262Y159130D01*
X371367Y159124D01*
X371471Y159115D01*
X371574Y159102D01*
X371677Y159084D01*
X371779Y159064D01*
X371881Y159039D01*
X371981Y159011D01*
X372081Y158979D01*
X372179Y158943D01*
X372276Y158904D01*
X372371Y158862D01*
X372465Y158816D01*
X372557Y158766D01*
X372647Y158714D01*
X372735Y158658D01*
X372821Y158598D01*
X372905Y158536D01*
X372986Y158471D01*
X373065Y158403D01*
X373142Y158331D01*
X373215Y158258D01*
X373287Y158181D01*
X373355Y158102D01*
X373420Y158021D01*
X373482Y157937D01*
X373542Y157851D01*
X373598Y157763D01*
X373650Y157673D01*
X373700Y157581D01*
X373746Y157487D01*
X373788Y157392D01*
X373827Y157295D01*
X373863Y157197D01*
X373895Y157097D01*
X373923Y156997D01*
X373948Y156895D01*
X373968Y156793D01*
X373986Y156690D01*
X373999Y156587D01*
X374008Y156483D01*
X374014Y156378D01*
X374016Y156274D01*
X371158Y159131D02*
X371040Y159129D01*
X370921Y159123D01*
X370803Y159114D01*
X370686Y159101D01*
X370569Y159083D01*
X370452Y159063D01*
X370336Y159038D01*
X370221Y159010D01*
X370108Y158977D01*
X369995Y158942D01*
X369883Y158902D01*
X369773Y158860D01*
X369664Y158813D01*
X369556Y158763D01*
X369451Y158710D01*
X369347Y158653D01*
X369245Y158593D01*
X369145Y158530D01*
X369047Y158463D01*
X368951Y158394D01*
X368858Y158321D01*
X368767Y158245D01*
X368678Y158167D01*
X368592Y158085D01*
X368509Y158001D01*
X368428Y157915D01*
X368351Y157825D01*
X368276Y157734D01*
X368204Y157640D01*
X368135Y157543D01*
X368070Y157445D01*
X368007Y157344D01*
X367948Y157241D01*
X367892Y157137D01*
X367840Y157031D01*
X367791Y156923D01*
X367746Y156814D01*
X367704Y156703D01*
X367666Y156591D01*
X373063Y154052D02*
X373139Y154127D01*
X373214Y154206D01*
X373285Y154287D01*
X373354Y154371D01*
X373419Y154457D01*
X373481Y154545D01*
X373541Y154635D01*
X373597Y154727D01*
X373650Y154822D01*
X373699Y154918D01*
X373745Y155016D01*
X373788Y155115D01*
X373827Y155216D01*
X373862Y155318D01*
X373894Y155421D01*
X373922Y155525D01*
X373947Y155630D01*
X373968Y155737D01*
X373985Y155843D01*
X373998Y155950D01*
X374007Y156058D01*
X374013Y156166D01*
X374015Y156274D01*
X373063Y154051D02*
X367665Y147701D01*
X374015Y147701D01*
D15*
X343408Y113792D02*
X343408Y102108D01*
X343408Y113792D02*
X346654Y113792D01*
X346767Y113790D01*
X346880Y113784D01*
X346993Y113774D01*
X347106Y113760D01*
X347218Y113743D01*
X347329Y113721D01*
X347439Y113696D01*
X347549Y113666D01*
X347657Y113633D01*
X347764Y113596D01*
X347870Y113556D01*
X347974Y113511D01*
X348077Y113463D01*
X348178Y113412D01*
X348277Y113357D01*
X348374Y113299D01*
X348469Y113237D01*
X348562Y113172D01*
X348652Y113104D01*
X348740Y113033D01*
X348826Y112958D01*
X348909Y112881D01*
X348989Y112801D01*
X349066Y112718D01*
X349141Y112632D01*
X349212Y112544D01*
X349280Y112454D01*
X349345Y112361D01*
X349407Y112266D01*
X349465Y112169D01*
X349520Y112070D01*
X349571Y111969D01*
X349619Y111866D01*
X349664Y111762D01*
X349704Y111656D01*
X349741Y111549D01*
X349774Y111441D01*
X349804Y111331D01*
X349829Y111221D01*
X349851Y111110D01*
X349868Y110998D01*
X349882Y110885D01*
X349892Y110772D01*
X349898Y110659D01*
X349900Y110546D01*
X349898Y110433D01*
X349892Y110320D01*
X349882Y110207D01*
X349868Y110094D01*
X349851Y109982D01*
X349829Y109871D01*
X349804Y109761D01*
X349774Y109651D01*
X349741Y109543D01*
X349704Y109436D01*
X349664Y109330D01*
X349619Y109226D01*
X349571Y109123D01*
X349520Y109022D01*
X349465Y108923D01*
X349407Y108826D01*
X349345Y108731D01*
X349280Y108638D01*
X349212Y108548D01*
X349141Y108460D01*
X349066Y108374D01*
X348989Y108291D01*
X348909Y108211D01*
X348826Y108134D01*
X348740Y108059D01*
X348652Y107988D01*
X348562Y107920D01*
X348469Y107855D01*
X348374Y107793D01*
X348277Y107735D01*
X348178Y107680D01*
X348077Y107629D01*
X347974Y107581D01*
X347870Y107536D01*
X347764Y107496D01*
X347657Y107459D01*
X347549Y107426D01*
X347439Y107396D01*
X347329Y107371D01*
X347218Y107349D01*
X347106Y107332D01*
X346993Y107318D01*
X346880Y107308D01*
X346767Y107302D01*
X346654Y107300D01*
X346654Y107301D02*
X343408Y107301D01*
X347303Y107301D02*
X349899Y102108D01*
X354764Y111196D02*
X358010Y113792D01*
X358010Y102108D01*
X361255Y102108D02*
X354764Y102108D01*
X216408Y102108D02*
X216408Y113792D01*
X219654Y113792D01*
X219767Y113790D01*
X219880Y113784D01*
X219993Y113774D01*
X220106Y113760D01*
X220218Y113743D01*
X220329Y113721D01*
X220439Y113696D01*
X220549Y113666D01*
X220657Y113633D01*
X220764Y113596D01*
X220870Y113556D01*
X220974Y113511D01*
X221077Y113463D01*
X221178Y113412D01*
X221277Y113357D01*
X221374Y113299D01*
X221469Y113237D01*
X221562Y113172D01*
X221652Y113104D01*
X221740Y113033D01*
X221826Y112958D01*
X221909Y112881D01*
X221989Y112801D01*
X222066Y112718D01*
X222141Y112632D01*
X222212Y112544D01*
X222280Y112454D01*
X222345Y112361D01*
X222407Y112266D01*
X222465Y112169D01*
X222520Y112070D01*
X222571Y111969D01*
X222619Y111866D01*
X222664Y111762D01*
X222704Y111656D01*
X222741Y111549D01*
X222774Y111441D01*
X222804Y111331D01*
X222829Y111221D01*
X222851Y111110D01*
X222868Y110998D01*
X222882Y110885D01*
X222892Y110772D01*
X222898Y110659D01*
X222900Y110546D01*
X222898Y110433D01*
X222892Y110320D01*
X222882Y110207D01*
X222868Y110094D01*
X222851Y109982D01*
X222829Y109871D01*
X222804Y109761D01*
X222774Y109651D01*
X222741Y109543D01*
X222704Y109436D01*
X222664Y109330D01*
X222619Y109226D01*
X222571Y109123D01*
X222520Y109022D01*
X222465Y108923D01*
X222407Y108826D01*
X222345Y108731D01*
X222280Y108638D01*
X222212Y108548D01*
X222141Y108460D01*
X222066Y108374D01*
X221989Y108291D01*
X221909Y108211D01*
X221826Y108134D01*
X221740Y108059D01*
X221652Y107988D01*
X221562Y107920D01*
X221469Y107855D01*
X221374Y107793D01*
X221277Y107735D01*
X221178Y107680D01*
X221077Y107629D01*
X220974Y107581D01*
X220870Y107536D01*
X220764Y107496D01*
X220657Y107459D01*
X220549Y107426D01*
X220439Y107396D01*
X220329Y107371D01*
X220218Y107349D01*
X220106Y107332D01*
X219993Y107318D01*
X219880Y107308D01*
X219767Y107302D01*
X219654Y107300D01*
X219654Y107301D02*
X216408Y107301D01*
X220303Y107301D02*
X222899Y102108D01*
X234255Y110871D02*
X234253Y110978D01*
X234247Y111084D01*
X234237Y111190D01*
X234224Y111296D01*
X234206Y111402D01*
X234185Y111506D01*
X234160Y111610D01*
X234131Y111713D01*
X234099Y111814D01*
X234062Y111914D01*
X234022Y112013D01*
X233979Y112111D01*
X233932Y112207D01*
X233881Y112301D01*
X233827Y112393D01*
X233770Y112483D01*
X233710Y112571D01*
X233646Y112656D01*
X233579Y112739D01*
X233509Y112820D01*
X233437Y112898D01*
X233361Y112974D01*
X233283Y113046D01*
X233202Y113116D01*
X233119Y113183D01*
X233034Y113247D01*
X232946Y113307D01*
X232856Y113364D01*
X232764Y113418D01*
X232670Y113469D01*
X232574Y113516D01*
X232476Y113559D01*
X232377Y113599D01*
X232277Y113636D01*
X232176Y113668D01*
X232073Y113697D01*
X231969Y113722D01*
X231865Y113743D01*
X231759Y113761D01*
X231653Y113774D01*
X231547Y113784D01*
X231441Y113790D01*
X231334Y113792D01*
X231213Y113790D01*
X231092Y113784D01*
X230972Y113774D01*
X230851Y113761D01*
X230732Y113743D01*
X230612Y113722D01*
X230494Y113697D01*
X230377Y113668D01*
X230260Y113635D01*
X230145Y113599D01*
X230031Y113558D01*
X229918Y113515D01*
X229806Y113467D01*
X229697Y113416D01*
X229589Y113361D01*
X229482Y113303D01*
X229378Y113242D01*
X229276Y113177D01*
X229176Y113109D01*
X229078Y113038D01*
X228982Y112964D01*
X228889Y112887D01*
X228799Y112806D01*
X228711Y112723D01*
X228626Y112637D01*
X228543Y112548D01*
X228464Y112457D01*
X228387Y112363D01*
X228314Y112267D01*
X228244Y112169D01*
X228177Y112068D01*
X228113Y111965D01*
X228053Y111860D01*
X227996Y111753D01*
X227942Y111645D01*
X227892Y111535D01*
X227846Y111423D01*
X227803Y111310D01*
X227764Y111195D01*
X233282Y108599D02*
X233361Y108676D01*
X233437Y108757D01*
X233510Y108840D01*
X233580Y108925D01*
X233647Y109013D01*
X233711Y109103D01*
X233771Y109195D01*
X233828Y109290D01*
X233882Y109386D01*
X233933Y109484D01*
X233980Y109584D01*
X234024Y109686D01*
X234064Y109789D01*
X234100Y109893D01*
X234132Y109999D01*
X234161Y110105D01*
X234186Y110213D01*
X234208Y110321D01*
X234225Y110431D01*
X234239Y110540D01*
X234248Y110650D01*
X234254Y110761D01*
X234256Y110871D01*
X233282Y108599D02*
X227764Y102108D01*
X234255Y102108D01*
X279908Y102108D02*
X279908Y113792D01*
X283154Y113792D01*
X283267Y113790D01*
X283380Y113784D01*
X283493Y113774D01*
X283606Y113760D01*
X283718Y113743D01*
X283829Y113721D01*
X283939Y113696D01*
X284049Y113666D01*
X284157Y113633D01*
X284264Y113596D01*
X284370Y113556D01*
X284474Y113511D01*
X284577Y113463D01*
X284678Y113412D01*
X284777Y113357D01*
X284874Y113299D01*
X284969Y113237D01*
X285062Y113172D01*
X285152Y113104D01*
X285240Y113033D01*
X285326Y112958D01*
X285409Y112881D01*
X285489Y112801D01*
X285566Y112718D01*
X285641Y112632D01*
X285712Y112544D01*
X285780Y112454D01*
X285845Y112361D01*
X285907Y112266D01*
X285965Y112169D01*
X286020Y112070D01*
X286071Y111969D01*
X286119Y111866D01*
X286164Y111762D01*
X286204Y111656D01*
X286241Y111549D01*
X286274Y111441D01*
X286304Y111331D01*
X286329Y111221D01*
X286351Y111110D01*
X286368Y110998D01*
X286382Y110885D01*
X286392Y110772D01*
X286398Y110659D01*
X286400Y110546D01*
X286398Y110433D01*
X286392Y110320D01*
X286382Y110207D01*
X286368Y110094D01*
X286351Y109982D01*
X286329Y109871D01*
X286304Y109761D01*
X286274Y109651D01*
X286241Y109543D01*
X286204Y109436D01*
X286164Y109330D01*
X286119Y109226D01*
X286071Y109123D01*
X286020Y109022D01*
X285965Y108923D01*
X285907Y108826D01*
X285845Y108731D01*
X285780Y108638D01*
X285712Y108548D01*
X285641Y108460D01*
X285566Y108374D01*
X285489Y108291D01*
X285409Y108211D01*
X285326Y108134D01*
X285240Y108059D01*
X285152Y107988D01*
X285062Y107920D01*
X284969Y107855D01*
X284874Y107793D01*
X284777Y107735D01*
X284678Y107680D01*
X284577Y107629D01*
X284474Y107581D01*
X284370Y107536D01*
X284264Y107496D01*
X284157Y107459D01*
X284049Y107426D01*
X283939Y107396D01*
X283829Y107371D01*
X283718Y107349D01*
X283606Y107332D01*
X283493Y107318D01*
X283380Y107308D01*
X283267Y107302D01*
X283154Y107300D01*
X283154Y107301D02*
X279908Y107301D01*
X283803Y107301D02*
X286399Y102108D01*
X291264Y102108D02*
X294510Y102108D01*
X294623Y102110D01*
X294736Y102116D01*
X294849Y102126D01*
X294962Y102140D01*
X295074Y102157D01*
X295185Y102179D01*
X295295Y102204D01*
X295405Y102234D01*
X295513Y102267D01*
X295620Y102304D01*
X295726Y102344D01*
X295830Y102389D01*
X295933Y102437D01*
X296034Y102488D01*
X296133Y102543D01*
X296230Y102601D01*
X296325Y102663D01*
X296418Y102728D01*
X296508Y102796D01*
X296596Y102867D01*
X296682Y102942D01*
X296765Y103019D01*
X296845Y103099D01*
X296922Y103182D01*
X296997Y103268D01*
X297068Y103356D01*
X297136Y103446D01*
X297201Y103539D01*
X297263Y103634D01*
X297321Y103731D01*
X297376Y103830D01*
X297427Y103931D01*
X297475Y104034D01*
X297520Y104138D01*
X297560Y104244D01*
X297597Y104351D01*
X297630Y104459D01*
X297660Y104569D01*
X297685Y104679D01*
X297707Y104790D01*
X297724Y104902D01*
X297738Y105015D01*
X297748Y105128D01*
X297754Y105241D01*
X297756Y105354D01*
X297754Y105467D01*
X297748Y105580D01*
X297738Y105693D01*
X297724Y105806D01*
X297707Y105918D01*
X297685Y106029D01*
X297660Y106139D01*
X297630Y106249D01*
X297597Y106357D01*
X297560Y106464D01*
X297520Y106570D01*
X297475Y106674D01*
X297427Y106777D01*
X297376Y106878D01*
X297321Y106977D01*
X297263Y107074D01*
X297201Y107169D01*
X297136Y107262D01*
X297068Y107352D01*
X296997Y107440D01*
X296922Y107526D01*
X296845Y107609D01*
X296765Y107689D01*
X296682Y107766D01*
X296596Y107841D01*
X296508Y107912D01*
X296418Y107980D01*
X296325Y108045D01*
X296230Y108107D01*
X296133Y108165D01*
X296034Y108220D01*
X295933Y108271D01*
X295830Y108319D01*
X295726Y108364D01*
X295620Y108404D01*
X295513Y108441D01*
X295405Y108474D01*
X295295Y108504D01*
X295185Y108529D01*
X295074Y108551D01*
X294962Y108568D01*
X294849Y108582D01*
X294736Y108592D01*
X294623Y108598D01*
X294510Y108600D01*
X295159Y113792D02*
X291264Y113792D01*
X295159Y113792D02*
X295260Y113790D01*
X295360Y113784D01*
X295460Y113774D01*
X295560Y113761D01*
X295659Y113743D01*
X295758Y113722D01*
X295855Y113697D01*
X295952Y113668D01*
X296047Y113635D01*
X296141Y113599D01*
X296233Y113559D01*
X296324Y113516D01*
X296413Y113469D01*
X296500Y113419D01*
X296586Y113365D01*
X296669Y113308D01*
X296749Y113248D01*
X296828Y113185D01*
X296904Y113118D01*
X296977Y113049D01*
X297047Y112977D01*
X297115Y112903D01*
X297180Y112826D01*
X297241Y112746D01*
X297300Y112664D01*
X297355Y112580D01*
X297407Y112494D01*
X297456Y112406D01*
X297501Y112316D01*
X297543Y112224D01*
X297581Y112131D01*
X297615Y112036D01*
X297646Y111941D01*
X297673Y111844D01*
X297696Y111746D01*
X297716Y111647D01*
X297731Y111547D01*
X297743Y111447D01*
X297751Y111347D01*
X297755Y111246D01*
X297755Y111146D01*
X297751Y111045D01*
X297743Y110945D01*
X297731Y110845D01*
X297716Y110745D01*
X297696Y110646D01*
X297673Y110548D01*
X297646Y110451D01*
X297615Y110356D01*
X297581Y110261D01*
X297543Y110168D01*
X297501Y110076D01*
X297456Y109986D01*
X297407Y109898D01*
X297355Y109812D01*
X297300Y109728D01*
X297241Y109646D01*
X297180Y109566D01*
X297115Y109489D01*
X297047Y109415D01*
X296977Y109343D01*
X296904Y109274D01*
X296828Y109207D01*
X296749Y109144D01*
X296669Y109084D01*
X296586Y109027D01*
X296500Y108973D01*
X296413Y108923D01*
X296324Y108876D01*
X296233Y108833D01*
X296141Y108793D01*
X296047Y108757D01*
X295952Y108724D01*
X295855Y108695D01*
X295758Y108670D01*
X295659Y108649D01*
X295560Y108631D01*
X295460Y108618D01*
X295360Y108608D01*
X295260Y108602D01*
X295159Y108600D01*
X295159Y108599D02*
X292563Y108599D01*
X152908Y113792D02*
X152908Y102108D01*
X152908Y113792D02*
X156154Y113792D01*
X156267Y113790D01*
X156380Y113784D01*
X156493Y113774D01*
X156606Y113760D01*
X156718Y113743D01*
X156829Y113721D01*
X156939Y113696D01*
X157049Y113666D01*
X157157Y113633D01*
X157264Y113596D01*
X157370Y113556D01*
X157474Y113511D01*
X157577Y113463D01*
X157678Y113412D01*
X157777Y113357D01*
X157874Y113299D01*
X157969Y113237D01*
X158062Y113172D01*
X158152Y113104D01*
X158240Y113033D01*
X158326Y112958D01*
X158409Y112881D01*
X158489Y112801D01*
X158566Y112718D01*
X158641Y112632D01*
X158712Y112544D01*
X158780Y112454D01*
X158845Y112361D01*
X158907Y112266D01*
X158965Y112169D01*
X159020Y112070D01*
X159071Y111969D01*
X159119Y111866D01*
X159164Y111762D01*
X159204Y111656D01*
X159241Y111549D01*
X159274Y111441D01*
X159304Y111331D01*
X159329Y111221D01*
X159351Y111110D01*
X159368Y110998D01*
X159382Y110885D01*
X159392Y110772D01*
X159398Y110659D01*
X159400Y110546D01*
X159398Y110433D01*
X159392Y110320D01*
X159382Y110207D01*
X159368Y110094D01*
X159351Y109982D01*
X159329Y109871D01*
X159304Y109761D01*
X159274Y109651D01*
X159241Y109543D01*
X159204Y109436D01*
X159164Y109330D01*
X159119Y109226D01*
X159071Y109123D01*
X159020Y109022D01*
X158965Y108923D01*
X158907Y108826D01*
X158845Y108731D01*
X158780Y108638D01*
X158712Y108548D01*
X158641Y108460D01*
X158566Y108374D01*
X158489Y108291D01*
X158409Y108211D01*
X158326Y108134D01*
X158240Y108059D01*
X158152Y107988D01*
X158062Y107920D01*
X157969Y107855D01*
X157874Y107793D01*
X157777Y107735D01*
X157678Y107680D01*
X157577Y107629D01*
X157474Y107581D01*
X157370Y107536D01*
X157264Y107496D01*
X157157Y107459D01*
X157049Y107426D01*
X156939Y107396D01*
X156829Y107371D01*
X156718Y107349D01*
X156606Y107332D01*
X156493Y107318D01*
X156380Y107308D01*
X156267Y107302D01*
X156154Y107300D01*
X156154Y107301D02*
X152908Y107301D01*
X156803Y107301D02*
X159399Y102108D01*
X164264Y104704D02*
X166861Y113792D01*
X164264Y104704D02*
X170755Y104704D01*
X168808Y107301D02*
X168808Y102108D01*
M02*
